<svg xmlns="http://www.w3.org/2000/svg" height="64" width="64" version="1">
 <rect ry="28" style="fill:#111" rx="28" transform="matrix(0,-1,-1,0,0,0)" height="56" width="56" y="-60" x="-60"/>
 <path style="opacity:.1;fill:#fff" d="m32 4c-15.512 0-28 12.488-28 28 0 0.114 0.0113 0.224 0.0176 0.336 0.3515-15.202 12.693-27.336 27.982-27.336s27.631 12.134 27.982 27.336c0.007-0.112 0.018-0.223 0.018-0.336 0-15.512-12.488-28-28-28z"/>
 <path style="opacity:.2" d="m59.982 32.664c-0.351 15.202-12.693 27.336-27.982 27.336-15.288 0-27.629-12.132-27.982-27.332-0.0066 0.111-0.018 0.22-0.018 0.332 0 15.512 12.488 28 28 28s28-12.488 28-28c0-0.11345-0.01128-0.22411-0.01758-0.33594z"/>
 <path style="opacity:.2;stroke-width:1.8777" d="m26.333 19-1.8889 1.8667h-6.552c-2.892 0-2.892 2.8-2.892 2.8v20.533c0 2.8112 2.8924 2.8 2.8924 2.8h28.275c2.833 0 2.833-2.8 2.833-2.8v-20.533c0-2.8-2.8333-2.8-2.8333-2.8h-6.6111l-1.8889-1.8667zm5.6667 5.6c5.2159 0 9.4444 4.1787 9.4444 9.3333 0 5.1547-4.2286 9.3333-9.4444 9.3333s-9.4444-4.1787-9.4444-9.3333c0-5.1547 4.2286-9.3333 9.4444-9.3333zm0 3.7333c-3.1296 0-5.6667 2.5074-5.6667 5.6 0 3.0928 2.5371 5.6 5.6667 5.6s5.6667-2.5073 5.6667-5.6c0-3.0928-2.5371-5.6-5.6667-5.6z"/>
 <path style="stroke-width:1.8777;fill:#f5f5f5" d="m26.333 18-1.8889 1.8667h-6.552c-2.892 0-2.892 2.8-2.892 2.8v20.533c0 2.8112 2.8924 2.8 2.8924 2.8h28.275c2.833 0 2.833-2.8 2.833-2.8v-20.533c0-2.8-2.8333-2.8-2.8333-2.8h-6.6111l-1.8889-1.8667zm5.6667 5.6c5.2159 0 9.4444 4.1787 9.4444 9.3333 0 5.1547-4.2286 9.3333-9.4444 9.3333s-9.4444-4.1787-9.4444-9.3333c0-5.1547 4.2286-9.3333 9.4444-9.3333zm0 3.7333c-3.1296 0-5.6667 2.5074-5.6667 5.6 0 3.0928 2.5371 5.6 5.6667 5.6s5.6667-2.5073 5.6667-5.6c0-3.0928-2.5371-5.6-5.6667-5.6z"/>
</svg>
