<svg xmlns="http://www.w3.org/2000/svg" height="64" width="64" version="1.1" viewBox="0 0 64 64">
 <path style="fill:#21afed" d="m6.8 9c-1.5512 0-2.8 1.2388-2.8 2.7778v42.444c0 1.5388 1.2488 2.7778 2.8 2.7778h50.4c1.551 0 2.8-1.239 2.8-2.778v-42.444c0-1.538-1.248-2.777-2.8-2.777z"/>
 <path style="fill:#1a1a1a" d="m6.8 7.0001c-1.5512 0-2.8 1.2388-2.8 2.7778v3.2221h56v-3.2222c0-1.5389-1.248-2.7777-2.8-2.7777z"/>
 <path style="opacity:.1;fill:#fff" d="m6.8008 7c-1.5512 0-2.8008 1.2384-2.8008 2.7773v0.9997c0-1.5386 1.2496-2.777 2.8008-2.777h50.398c1.55 0 2.801 1.2384 2.801 2.777v-0.9997c0-1.5389-1.251-2.7773-2.801-2.7773h-50.398z"/>
 <path style="opacity:.2" d="m4 54.223v1c0 1.54 1.2496 2.777 2.8008 2.777h50.398c1.55 0 2.801-1.237 2.801-2.777v-1c0 1.54-1.251 2.777-2.801 2.777h-50.398c-1.5514 0-2.801-1.237-2.801-2.777z"/>
 <g style="opacity:.2">
  <path d="m20.971 28.213c-2.207 2.1716-7.5281 8.8125-12.229 13.752-0.17916 0.18827-0.37894 0.4173-0.59766 0.68164 1.4621 1.4454 2.8816 2.5774 4.2109 3.4609 1.2864 0.85493 2.4886 1.4789 3.5625 1.9375 0.25667 0.10962 0.50378 0.2113 0.74414 0.30273 0.13731-0.23456 0.25457-0.44933 0.35156-0.64062 3.0804-6.0755 7.5663-13.314 8.8633-16.104-1.0377-0.23149-1.9931-0.66018-2.8242-1.2402-0.83117-0.58005-1.5382-1.312-2.082-2.1504z"/>
  <path d="m10.283 57c2.051-2.636 4.325-5.506 5.408-7.123-0.165-0.066-0.335-0.132-0.505-0.205-1.069-0.457-2.242-1.061-3.485-1.858-1.477-0.947-3.0529-2.168-4.6658-3.736-0.7263 0.982-2.0924 3.23-3.0352 4.635v5.51c0 1.538 1.2496 2.777 2.8008 2.777h3.4822z"/>
  <path style="stroke-width:0" d="m27.734 30.968c3.8511 0.2721 7.2444-2.1965 8.1545-5.7026 0.44603-1.261 0.92526-2.3903 1.4808-3.3957-0.04247-0.03089-0.09038-0.0582-0.1317-0.08972 0.04132 0.03152 0.08924 0.05874 0.1317 0.08963 1.8143-3.2835 4.4729-5.2088 9.698-5.7767 0.85572-0.093 0.64747-1.1121 0.0814-1.1521-6.0916-0.4304-13.101-0.89771-18.448 0.29946 0.03305 0.0043 0.05812 0.005 0.09139 0.0094 0.32192 0.04308 0.65494 0.09221 0.9911 0.14736 0.08404 0.01378 0.16824 0.02799 0.25262 0.04253 0.16875 0.0291 0.33806 0.05974 0.50755 0.09221-0.1695-0.03246-0.3388-0.06311-0.50755-0.09221-0.08438-0.01455-0.16858-0.02866-0.25263-0.04245-0.33616-0.05514-0.66917-0.10437-0.99109-0.14744-0.03327-0.0044-0.05834-0.0051-0.09139-0.0093-3.084 0.69056-5.6164 1.9321-7.0952 4.0601-0.66083 1.0239-1.0785 2.2182-1.1698 3.5099-0.29672 4.1997 2.9697 7.8518 7.2979 8.1576zm9.3564-9.3033c-0.04823-0.03887-0.09555-0.07814-0.14161-0.11793-0.09212-0.07957-0.17983-0.16013-0.26351-0.24338 0.08368 0.08324 0.1714 0.16372 0.26352 0.24329 0.04606 0.03979 0.09337 0.07915 0.1416 0.11802zm-1.752-4.192c-0.01929-0.02095-0.03898-0.04174-0.05921-0.06229-0.04045-0.04111-0.0828-0.08147-0.12711-0.12123 0.04431 0.03976 0.08666 0.08012 0.12711 0.12123 0.02023 0.02055 0.03993 0.04125 0.05922 0.0622 0.000015 0.000014-0.000015-0.000001 0 0zm-0.32522-0.30117c-0.04824-0.03867-0.0984-0.07676-0.15015-0.11413 0.05175 0.03737 0.1019 0.07546 0.15015 0.11413zm-0.22892-0.1696c-0.05331-0.03662-0.10836-0.07249-0.16496-0.10768 0.0566 0.03519 0.11165 0.07106 0.16496 0.10768zm-0.33937-0.21153c-0.11925-0.06822-0.2436-0.13421-0.37407-0.19758s-0.26705-0.12484-0.40732-0.18353c0.14028 0.05869 0.27686 0.12016 0.40732 0.18353s0.25482 0.12936 0.37407 0.19758zm-0.99493-0.46735c-0.14446-0.05632-0.29302-0.11031-0.44518-0.16222-0.07608-0.02595-0.15304-0.05134-0.23088-0.07628-0.31134-0.09973-0.63584-0.19169-0.96671-0.27516-0.08272-0.02087-0.16593-0.0413-0.24948-0.06118-0.16712-0.03977-0.33568-0.07757-0.50486-0.11362 0.16918 0.03605 0.33774 0.07385 0.50486 0.11362 0.08356 0.01988 0.16677 0.04023 0.24949 0.0611 0.33088 0.08347 0.65537 0.17543 0.96671 0.27516 0.07784 0.02494 0.1548 0.05041 0.23087 0.07636 0.15216 0.0519 0.30072 0.1059 0.44518 0.16222z"/>
 </g>
 <g style="fill:#1a1a1a">
  <path style="fill:#1a1a1a" d="m20.971 27.213c-2.207 2.171-7.528 8.812-12.229 13.752-0.179 0.188-0.3788 0.417-0.5975 0.681 1.4622 1.446 2.8815 2.578 4.2105 3.461 1.287 0.855 2.489 1.479 3.563 1.938 0.257 0.11 0.504 0.211 0.744 0.303 0.137-0.235 0.255-0.45 0.352-0.641 3.08-6.075 7.566-13.314 8.863-16.103-1.038-0.232-1.993-0.661-2.824-1.241s-1.538-1.312-2.082-2.15z"/>
  <path style="fill:#1a1a1a" d="m9.5234 57c2.2696-2.934 4.9326-6.279 6.1676-8.123-0.165-0.066-0.335-0.132-0.505-0.205-1.069-0.457-2.242-1.061-3.485-1.858-1.477-0.947-3.0529-2.168-4.6658-3.736-0.7263 0.982-2.0924 3.23-3.0352 4.635v6.51c0 1.538 1.2496 2.777 2.8008 2.777h2.7226z"/>
  <path style="stroke-width:0;fill:#1a1a1a" d="m27.734 29.968c3.8511 0.2721 7.2444-2.1965 8.1545-5.7026 0.44603-1.261 0.92526-2.3903 1.4808-3.3957-0.04247-0.03089-0.09038-0.0582-0.1317-0.08972 0.04132 0.03152 0.08924 0.05874 0.1317 0.08963 1.8143-3.2835 4.4729-5.2088 9.698-5.7767 0.85572-0.093 0.64747-1.1121 0.0814-1.1521-6.0916-0.4304-13.101-0.89771-18.448 0.29946 0.03305 0.0043 0.05812 0.005 0.09139 0.0094 0.32192 0.04308 0.65494 0.09221 0.9911 0.14736 0.08404 0.01378 0.16824 0.02799 0.25262 0.04253 0.16875 0.0291 0.33806 0.05974 0.50755 0.09221-0.1695-0.03246-0.3388-0.06311-0.50755-0.09221-0.08438-0.01455-0.16858-0.02866-0.25263-0.04245-0.33616-0.05514-0.66917-0.10437-0.99109-0.14744-0.03327-0.0044-0.05834-0.0051-0.09139-0.0093-3.084 0.69056-5.6164 1.9321-7.0952 4.0601-0.66083 1.0239-1.0785 2.2182-1.1698 3.5099-0.29672 4.1997 2.9697 7.8518 7.2979 8.1576zm9.3564-9.3033c-0.04823-0.03887-0.09555-0.07814-0.14161-0.11793-0.09212-0.07957-0.17983-0.16013-0.26351-0.24338 0.08368 0.08324 0.1714 0.16372 0.26352 0.24329 0.04606 0.03979 0.09337 0.07915 0.1416 0.11802zm-1.752-4.192c-0.01929-0.02095-0.03898-0.04174-0.05921-0.06229-0.04045-0.04111-0.0828-0.08147-0.12711-0.12123 0.04431 0.03976 0.08666 0.08012 0.12711 0.12123 0.02023 0.02055 0.03993 0.04125 0.05922 0.0622 0.000015 0.000014-0.000015-0.000001 0 0zm-0.32522-0.30117c-0.04824-0.03867-0.0984-0.07676-0.15015-0.11413 0.05175 0.03737 0.1019 0.07546 0.15015 0.11413zm-0.22892-0.1696c-0.05331-0.03662-0.10836-0.07249-0.16496-0.10768 0.0566 0.03519 0.11165 0.07106 0.16496 0.10768zm-0.33937-0.21153c-0.11925-0.06822-0.2436-0.13421-0.37407-0.19758s-0.26705-0.12484-0.40732-0.18353c0.14028 0.05869 0.27686 0.12016 0.40732 0.18353s0.25482 0.12936 0.37407 0.19758zm-0.99493-0.46735c-0.14446-0.05632-0.29302-0.11031-0.44518-0.16222-0.07608-0.02595-0.15304-0.05134-0.23088-0.07628-0.31134-0.09973-0.63584-0.19169-0.96671-0.27516-0.08272-0.02087-0.16593-0.0413-0.24948-0.06118-0.16712-0.03977-0.33568-0.07757-0.50486-0.11362 0.16918 0.03605 0.33774 0.07385 0.50486 0.11362 0.08356 0.01988 0.16677 0.04023 0.24949 0.0611 0.33088 0.08347 0.65537 0.17543 0.96671 0.27516 0.07784 0.02494 0.1548 0.05041 0.23087 0.07636 0.15216 0.0519 0.30072 0.1059 0.44518 0.16222z"/>
 </g>
</svg>
