<svg xmlns="http://www.w3.org/2000/svg" height="64" width="64" version="1">
 <path style="opacity:.2" d="m24 8v2h16v-2h-16zm-20 43v2c0 1.662 1.338 3 3 3h50c1.662 0 3-1.338 3-3v-2c0 1.662-1.338 3-3 3h-50c-1.662 0-3-1.338-3-3z"/>
 <path style="fill:#c2c8ce" d="m24 5-4 4v6h-16v37c0 1.662 1.338 3 3 3h50c1.662 0 3-1.338 3-3v-37h-16v-6l-4-4zm0 4h16v6h-16z"/>
 <path style="opacity:.2;enable-background:new;fill-rule:evenodd" d="m63.958 45.894a15 15 0 0 1 -14.958 14.106 15 15 0 0 1 -14.958 -13.894 15 15 0 0 0 -0.042 0.894 15 15 0 0 0 15 15 15 15 0 0 0 15 -15 15 15 0 0 0 -0.042 -1.106z"/>
 <circle style="enable-background:new;fill:#f2f2f2;fill-rule:evenodd" cx="49" r="15" cy="46"/>
 <path style="fill:#fff" d="m110.58 38.627v8h3l-6 8-6-8h3v-8zm-10 16h14v2h-14z"/>
 <g transform="translate(0 .50003)">
  <path style="stroke-width:3.033;fill:#1976d2" d="m43.706 44.996c-0.06873 0-0.13559 0.0063-0.20031 0.01941-0.22652 0.04521-0.42471 0.16565-0.56604 0.33345-0.14132 0.16779-0.22506 0.38338-0.22506 0.61893v6.5512c0 0.27185 0.10985 0.51701 0.28921 0.6943s0.4273 0.28663 0.7022 0.28663h10.587c0.2749 0 0.52284-0.10934 0.7022-0.28663s0.28921-0.42245 0.28921-0.6943v-6.5513c0-0.23558-0.08374-0.45113-0.22506-0.61893s-0.33951-0.28829-0.56604-0.33345c-0.06472-0.0131-0.13158-0.01941-0.20031-0.01941z"/>
  <path style="stroke-width:3.033;fill:#a7d319" d="m41.895 38.501a0.41356 0.41966 0 0 0 -0.04164 0.0046 0.41356 0.41966 0 0 0 -0.04051 0.008 0.41356 0.41966 0 0 0 -0.03939 0.01256 0.41356 0.41966 0 0 0 -0.03826 0.01598 0.41356 0.41966 0 0 0 -0.03601 0.01941 0.41356 0.41966 0 0 0 -0.03488 0.02398 0.41356 0.41966 0 0 0 -0.03151 0.02626 0.41356 0.41966 0 0 0 -0.02926 0.02969 0.41356 0.41966 0 0 0 -0.02588 0.03312 0.41356 0.41966 0 0 0 -0.02251 0.0354 0.41356 0.41966 0 0 0 -0.01913 0.03654 0.41356 0.41966 0 0 0 -0.01463 0.03883 0.41356 0.41966 0 0 0 -0.01125 0.04111 0.41356 0.41966 0 0 0 -0.0079 0.04111 0.41356 0.41966 0 0 0 -0.0023 0.04225 0.41356 0.41966 0 0 0 0 0.04111 0.41356 0.41966 0 0 0 0.0056 0.04225 0.41356 0.41966 0 0 0 0.009 0.04111 0.41356 0.41966 0 0 0 0.0135 0.03883 0.41356 0.41966 0 0 0 0.01688 0.03883 0.41356 0.41966 0 0 0 0.02025 0.03654 0.41356 0.41966 0 0 0 0.02363 0.03426l1.1928 1.5645c-0.04201 0.11182-0.06752 0.23249-0.06752 0.35971v2.3501c0 0.27899 0.11098 0.53057 0.29033 0.71257 0.17936 0.182 0.4273 0.29462 0.7022 0.29462h10.587c0.2749 0 0.52284-0.11262 0.7022-0.29462s0.28921-0.43358 0.28921-0.71257v-2.3501c0-0.12766-0.02631-0.24752-0.06864-0.35971l1.1928-1.5645a0.41356 0.41966 0 0 1 0 -0.0012 0.41356 0.41966 0 0 0 0.02476 -0.03426 0.41356 0.41966 0 0 0 0.02026 -0.03654 0.41356 0.41966 0 0 0 0.01688 -0.03768 0.41356 0.41966 0 0 0 0.01351 -0.03997 0.41356 0.41966 0 0 0 0.009 -0.04111 0.41356 0.41966 0 0 0 0.0045 -0.04225 0.41356 0.41966 0 0 0 0.0012 -0.04111 0.41356 0.41966 0 0 0 -0.0034 -0.04225 0.41356 0.41966 0 0 0 -0.0079 -0.04111 0.41356 0.41966 0 0 0 -0.01125 -0.03997 0.41356 0.41966 0 0 0 -0.01463 -0.03997 0.41356 0.41966 0 0 0 -0.01913 -0.03654 0.41356 0.41966 0 0 0 -0.02251 -0.0354 0.41356 0.41966 0 0 0 -0.02588 -0.03312 0.41356 0.41966 0 0 0 -0.02926 -0.02969 0.41356 0.41966 0 0 0 -0.03151 -0.02626 0.41356 0.41966 0 0 0 -0.03489 -0.02398 0.41356 0.41966 0 0 0 -0.03601 -0.01941 0.41356 0.41966 0 0 0 -0.03826 -0.01599 0.41356 0.41966 0 0 0 -0.03939 -0.01256 0.41356 0.41966 0 0 0 -0.04051 -0.008 0.41356 0.41966 0 0 0 -0.04164 -0.0035 0.41356 0.41966 0 0 0 -0.04164 0 0.41356 0.41966 0 0 0 -0.02926 0.0035 0.41356 0.41966 0 0 0 -0.04051 0.0069 0.41356 0.41966 0 0 0 -0.03939 0.01142 0.41356 0.41966 0 0 0 -0.03939 0.01599 0.41356 0.41966 0 0 0 -0.03601 0.01941 0.41356 0.41966 0 0 0 -0.03489 0.02284 0.41356 0.41966 0 0 0 -0.03263 0.02626 0.41356 0.41966 0 0 0 -0.02926 0.02855 0.41356 0.41966 0 0 0 -0.02588 0.03312l-1.1343 1.4914c-0.10262-0.03617-0.21125-0.06052-0.32634-0.06052h-10.587c-0.11531 0-0.22468 0.02435-0.32747 0.06052l-1.1354-1.4913a0.41356 0.41966 0 0 1 0 -0.0012 0.41356 0.41966 0 0 0 -0.02588 -0.03198 0.41356 0.41966 0 0 0 -0.03038 -0.02969 0.41356 0.41966 0 0 0 -0.03151 -0.02626 0.41356 0.41966 0 0 0 -0.03488 -0.0217 0.41356 0.41966 0 0 0 -0.03714 -0.01941 0.41356 0.41966 0 0 0 -0.03826 -0.01598 0.41356 0.41966 0 0 0 -0.03939 -0.01142 0.41356 0.41966 0 0 0 -0.04164 -0.0069 0.41356 0.41966 0 0 0 -0.04051 -0.0034 0.41356 0.41966 0 0 0 -0.02926 0zm3.9206 2.8583a1.1165 1.133 0 0 1 0.07765 0.0023 1.1165 1.133 0 0 1 0.11141 0.01371 1.1165 1.133 0 0 1 0.10916 0.02512 1.1165 1.133 0 0 1 0.10578 0.0354 1.1165 1.133 0 0 1 0.10128 0.04682 1.1165 1.133 0 0 1 0.09678 0.05595 1.1165 1.133 0 0 1 0.09115 0.06623 1.1165 1.133 0 0 1 0.0844 0.07423 1.1165 1.133 0 0 1 0.0754 0.08336 1.1165 1.133 0 0 1 0.06752 0.09021 1.1165 1.133 0 0 1 0.05852 0.09592 1.1165 1.133 0 0 1 0.04839 0.10163 1.1165 1.133 0 0 1 0.03826 0.10734 1.1165 1.133 0 0 1 0.02814 0.10963 1.1165 1.133 0 0 1 0.01688 0.11191 1.1165 1.133 0 0 1 0.0056 0.11305 1.1165 1.133 0 0 1 -0.0034 0.07994 1.1165 1.133 0 0 1 -0.0135 0.11305 1.1165 1.133 0 0 1 -0.02363 0.10963 1.1165 1.133 0 0 1 -0.03601 0.10848 1.1165 1.133 0 0 1 -0.04501 0.10278 1.1165 1.133 0 0 1 -0.05514 0.09821 1.1165 1.133 0 0 1 -0.06527 0.0925 1.1165 1.133 0 0 1 -0.07315 0.0845 1.1165 1.133 0 0 1 -0.08215 0.07765 1.1165 1.133 0 0 1 -0.0889 0.06852 1.1165 1.133 0 0 1 -0.09453 0.05938 1.1165 1.133 0 0 1 -0.10128 0.0491 1.1165 1.133 0 0 1 -0.10466 0.03883 1.1165 1.133 0 0 1 -0.10803 0.02855 1.1165 1.133 0 0 1 -0.11028 0.01713 1.1165 1.133 0 0 1 -0.11141 0.0046 1.1165 1.133 0 0 1 -0.0799 -0.0023 1.1165 1.133 0 0 1 -0.11141 -0.0137 1.1165 1.133 0 0 1 -0.10916 -0.02512 1.1165 1.133 0 0 1 -0.10578 -0.0354 1.1165 1.133 0 0 1 -0.10128 -0.04682 1.1165 1.133 0 0 1 -0.09678 -0.05595 1.1165 1.133 0 0 1 -0.09115 -0.06623 1.1165 1.133 0 0 1 -0.08327 -0.07423 1.1165 1.133 0 0 1 -0.07652 -0.08336 1.1165 1.133 0 0 1 -0.06752 -0.09021 1.1165 1.133 0 0 1 -0.05852 -0.09592 1.1165 1.133 0 0 1 -0.04839 -0.10278 1.1165 1.133 0 0 1 -0.03826 -0.1062 1.1165 1.133 0 0 1 -0.027 -0.10963 1.1165 1.133 0 0 1 -0.01688 -0.11191 1.1165 1.133 0 0 1 -0.0056 -0.11305 1.1165 1.133 0 0 1 0.0034 -0.08108 1.1165 1.133 0 0 1 0.01351 -0.11191 1.1165 1.133 0 0 1 0.02363 -0.11077 1.1165 1.133 0 0 1 0.03601 -0.10734 1.1165 1.133 0 0 1 0.04502 -0.10277 1.1165 1.133 0 0 1 0.05627 -0.09821 1.1165 1.133 0 0 1 0.06527 -0.0925 1.1165 1.133 0 0 1 0.07315 -0.08564 1.1165 1.133 0 0 1 0.08215 -0.07651 1.1165 1.133 0 0 1 0.0889 -0.06852 1.1165 1.133 0 0 1 0.09453 -0.05938 1.1165 1.133 0 0 1 0.10128 -0.0491 1.1165 1.133 0 0 1 0.10466 -0.03883 1.1165 1.133 0 0 1 0.10803 -0.0274 1.1165 1.133 0 0 1 0.11028 -0.01713 1.1165 1.133 0 0 1 0.11141 -0.0057zm6.4503 0a1.1165 1.133 0 0 1 0.07877 0.0023 1.1165 1.133 0 0 1 0.11141 0.01371 1.1165 1.133 0 0 1 0.10803 0.02512 1.1165 1.133 0 0 1 0.10691 0.0354 1.1165 1.133 0 0 1 0.10128 0.04682 1.1165 1.133 0 0 1 0.09678 0.05595 1.1165 1.133 0 0 1 0.09115 0.06623 1.1165 1.133 0 0 1 0.08327 0.07423 1.1165 1.133 0 0 1 0.07652 0.08336 1.1165 1.133 0 0 1 0.06752 0.09021 1.1165 1.133 0 0 1 0.05852 0.09592 1.1165 1.133 0 0 1 0.04839 0.10163 1.1165 1.133 0 0 1 0.03826 0.10734 1.1165 1.133 0 0 1 0.02813 0.10963 1.1165 1.133 0 0 1 0.01575 0.11191 1.1165 1.133 0 0 1 0.0056 0.11305 1.1165 1.133 0 0 1 -0.0022 0.08108 1.1165 1.133 0 0 1 -0.01351 0.11305 1.1165 1.133 0 0 1 -0.02476 0.10963 1.1165 1.133 0 0 1 -0.03489 0.10734 1.1165 1.133 0 0 1 -0.04614 0.10392 1.1165 1.133 0 0 1 -0.05514 0.09821 1.1165 1.133 0 0 1 -0.06527 0.0925 1.1165 1.133 0 0 1 -0.07315 0.0845 1.1165 1.133 0 0 1 -0.08215 0.07765 1.1165 1.133 0 0 1 -0.0889 0.06852 1.1165 1.133 0 0 1 -0.09565 0.05824 1.1165 1.133 0 0 1 -0.10015 0.0491 1.1165 1.133 0 0 1 -0.10466 0.03883 1.1165 1.133 0 0 1 -0.10803 0.02855 1.1165 1.133 0 0 1 -0.11028 0.01713 1.1165 1.133 0 0 1 -0.11141 0.0046 1.1165 1.133 0 0 1 -0.0799 -0.0023 1.1165 1.133 0 0 1 -0.11028 -0.0137 1.1165 1.133 0 0 1 -0.10916 -0.02512 1.1165 1.133 0 0 1 -0.10578 -0.0354 1.1165 1.133 0 0 1 -0.10128 -0.04682 1.1165 1.133 0 0 1 -0.09678 -0.05595 1.1165 1.133 0 0 1 -0.09115 -0.06623 1.1165 1.133 0 0 1 -0.0844 -0.07423 1.1165 1.133 0 0 1 -0.0754 -0.08336 1.1165 1.133 0 0 1 -0.06752 -0.09021 1.1165 1.133 0 0 1 -0.05852 -0.09592 1.1165 1.133 0 0 1 -0.04839 -0.10278 1.1165 1.133 0 0 1 -0.03826 -0.1062 1.1165 1.133 0 0 1 -0.02701 -0.10963 1.1165 1.133 0 0 1 -0.01688 -0.11191 1.1165 1.133 0 0 1 -0.0056 -0.11305 1.1165 1.133 0 0 1 0.0022 -0.07993 1.1165 1.133 0 0 1 0.01351 -0.11191 1.1165 1.133 0 0 1 0.02476 -0.11077 1.1165 1.133 0 0 1 0.03489 -0.10734 1.1165 1.133 0 0 1 0.04614 -0.10392 1.1165 1.133 0 0 1 0.05514 -0.09821 1.1165 1.133 0 0 1 0.06527 -0.09136 1.1165 1.133 0 0 1 0.07314 -0.08564 1.1165 1.133 0 0 1 0.08215 -0.07765 1.1165 1.133 0 0 1 0.0889 -0.06852 1.1165 1.133 0 0 1 0.09453 -0.05824 1.1165 1.133 0 0 1 0.10015 -0.05025 1.1165 1.133 0 0 1 0.10578 -0.03883 1.1165 1.133 0 0 1 0.10803 -0.0274 1.1165 1.133 0 0 1 0.11028 -0.01713 1.1165 1.133 0 0 1 0.11141 -0.0057z"/>
 </g>
</svg>
