<svg xmlns="http://www.w3.org/2000/svg" height="64" width="64" version="1.1" viewBox="0 0 64 64">
 <path style="opacity:.2" d="m59.957 29.828a28 26 0 0 1 0.043 1.172 28 26 0 0 1 -10 19.914v-2a28 26 0 0 0 9.957 -19.086zm-55.916 0.344a28 26 0 0 0 27.96 24.828 28 26 0 0 0 10.556 -1.934l7.443 5.934v2l-7.442-5.934a28 26 0 0 1 -10.558 1.934 28 26 0 0 1 -28 -26 28 26 0 0 1 0.042 -0.828z"/>
 <path style="fill:#08acc0" d="m32 4a28 26 0 0 1 28 26 28 26 0 0 1 -10 19.914v10.086l-7.442-5.934a28 26 0 0 1 -10.558 1.934 28 26 0 0 1 -28 -26 28 26 0 0 1 28 -26z"/>
 <path style="opacity:.2;fill:#fff" d="m32.002 4a28 26 0 0 1 27.998 26 28 26 0 0 1 -0.021 0.424 28 26 0 0 0 -27.977 -25.424h-0.002a28 26 0 0 0 -27.977 25.594 28 26 0 0 1 -0.021 -0.594 28 26 0 0 1 27.998 -26z"/>
 <circle style="opacity:.2;stroke-width:.99815" cx="32" r="18" cy="31"/>
 <circle cy="30" cx="32" r="18" style="stroke-width:.99815;fill:#2fc33f"/>
 <g style="opacity:.2" transform="matrix(-.87739 0 0 -.8722 35.169 284.01)">
  <path style="stroke-width:.31042" d="m3.6117 283.2a1.9844 1.9844 0 0 0 -1.9844 1.9844v4.9429a3.7042 3.7042 0 0 0 -1.7198 3.1269 3.7042 3.7042 0 0 0 3.7042 3.7042 3.7042 3.7042 0 0 0 3.7042 -3.7042 3.7042 3.7042 0 0 0 -1.7198 -3.1228v-4.947a1.9844 1.9844 0 0 0 -1.9844 -1.97z"/>
 </g>
 <g style="fill:#004043" transform="matrix(-.87739 0 0 -.87220 35.169 283.01)">
  <path style="stroke-width:.31042;fill:#004043" d="m3.6117 283.2a1.9844 1.9844 0 0 0 -1.9844 1.9844v4.9429a3.7042 3.7042 0 0 0 -1.7198 3.1269 3.7042 3.7042 0 0 0 3.7042 3.7042 3.7042 3.7042 0 0 0 3.7042 -3.7042 3.7042 3.7042 0 0 0 -1.7198 -3.1228v-4.947a1.9844 1.9844 0 0 0 -1.9844 -1.9844z"/>
 </g>
</svg>
