<svg xmlns="http://www.w3.org/2000/svg" height="64" width="64" version="1">
 <path style="opacity:.2" d="m6.3279 32.001c-0.4686 0.734-0.4192 1.698 0.2226 2.34l24.106 24.102c0.74201 0.74201 1.938 0.74201 2.68 0l24.107-24.102c0.64201-0.64201 0.69001-1.606 0.222-2.34-0.074 0.114-0.122 0.24-0.222 0.34l-24.106 24.106c-0.74201 0.74201-1.938 0.74201-2.68 0l-24.106-24.106c-0.0999-0.1-0.1493-0.226-0.2225-0.34z"/>
 <rect ry="1.894" style="fill:#36c" rx="1.894" transform="matrix(.70711 -.70710 -.70711 -.70710 0 0)" height="37.876" width="37.876" y="-64.2" x="-18.94"/>
 <path style="color:#000000;opacity:.2" d="m21.414 17.03-1.4141 1.4141 2.8164 2.8164a5.0001 5.0001 0 0 0 -0.82001 2.738 5.0001 5.0001 0 0 0 4 4.8907v8.2111a5.0001 5.0001 0 0 0 -4 4.9 5.0001 5.0001 0 0 0 5 5 5.0001 5.0001 0 0 0 5.001 -5 5.0001 5.0001 0 0 0 -4.001 -4.89v-8.2111a5.0001 5.0001 0 0 0 1.7383 -0.71877l3.082 3.082a5.0001 5.0001 0 0 0 -0.82001 2.736 5.0001 5.0001 0 0 0 5.0001 5.0001 5.0001 5.0001 0 0 0 5.0001 -5.0001 5.0001 5.0001 0 0 0 -5.0001 -5.0001 5.0001 5.0001 0 0 0 -2.77 0.84401l-3.07-3.07a5.0001 5.0001 0 0 0 0.84001 -2.774 5.0001 5.0001 0 0 0 -5.0001 -5.0001 5.0001 5.0001 0 0 0 -2.77 0.84401l-2.8124-2.8124z"/>
 <path style="stroke:#fff;stroke-width:2;fill:none" d="m20.706 16.736 14.562 14.564"/>
 <path style="stroke:#fff;stroke-width:2;fill:none" d="m26.996 22.043v15.956"/>
 <circle style="fill:#fff" cx="36.996" r="5" cy="32.999"/>
 <circle style="fill:#fff" cx="26.996" r="5" cy="40.999"/>
 <circle style="fill:#fff" cx="26.996" r="5" cy="22.999"/>
 <path style="opacity:.2;fill:#fff" d="m31.996 5.998c-0.484 0-0.968 0.1839-1.34 0.5547l-24.105 24.107c-0.4916 0.492-0.6336 1.171-0.4631 1.793 0.0809-0.289 0.2321-0.562 0.4629-0.793l24.105-24.107c0.372-0.3711 0.856-0.555 1.34-0.555v0.002c0.484 0 0.968 0.1825 1.34 0.5527l24.107 24.107c0.232 0.231 0.382 0.504 0.463 0.793 0.17-0.621 0.029-1.301-0.463-1.793l-24.107-24.105c-0.372-0.3705-0.856-0.555-1.34-0.555v-0.002z"/>
</svg>
