<svg xmlns="http://www.w3.org/2000/svg" height="64" width="64" version="1">
 <defs>
  <clipPath id="clipPath4483" clipPathUnits="userSpaceOnUse">
   <path style="fill:#fecd38" d="m91.5 254c-0.831 0-1.5 0.669-1.5 1.5v25c0 0.831 0.669 1.5 1.5 1.5h16.5l10-10v-16.5c0-0.831-0.669-1.5-1.5-1.5z"/>
  </clipPath>
 </defs>
 <path style="opacity:.2" d="m60 39-20 20h-33c-1.662 0-3-1.338-3-3v2c0 1.662 1.338 3 3 3h33l20-20v-2z"/>
 <path style="fill:#177ab3" d="m8 4s-4 0-4 4v48c0 4 4 4 4 4h32l20-20v-32c0-4-4-4-4-4z"/>
 <path style="opacity:.2;enable-background:new" clip-path="url(#clipPath4483)" transform="matrix(2,0,0,2,-176,-504)" d="m118 272h-8.5c-0.82843 0-1.5 0.67158-1.5 1.5v8.5z"/>
 <path style="opacity:.2;stroke-width:.57145" d="m32 17.566 4.635 9.6894l10.365 1.632-7.5 7.358 1.77 10.755-9.27-5.094-9.27 5.094 1.77-10.755-7.5-7.358 10.365-1.632z"/>
 <path style="stroke-width:.57145;fill:#d4ecf8" d="m32 17 4.635 9.6894l10.365 1.632-7.5 7.358 1.77 10.755-9.27-5.094-9.27 5.094 1.77-10.755-7.5-7.358 10.365-1.632z"/>
 <path style="opacity:.2;stroke-width:.57145;fill:#fff" d="m32 17-4.635 9.689-10.365 1.632l0.49692 0.48754 9.8685-1.5533 4.6345-9.689 4.6345 9.689 9.8685 1.5533 0.498-0.487-10.365-1.632zm-7.58 19.167-1.6902 10.267 0.10254-0.05638 1.6677-10.132zm15.16 0-0.08 0.07849 1.6677 10.132 0.10254 0.05638z"/>
 <path style="enable-background:new;fill:#42a9ea" d="m60 40h-17c-1.656 0-3 1.344-3 3v17z"/>
 <path style="opacity:.1;enable-background:new;fill:#fff" d="m43 40c-1.656 0-3 1.344-3 3v1c0-1.656 1.344-3 3-3h16l1-1h-17z"/>
 <path style="opacity:.1;fill:#fff" d="m8 4c-1.662 0-4 2.338-4 4v1c0-1.662 2.338-4 4-4h48c1.662 0 4 2.338 4 4v-1c0-1.662-2.338-4-4-4h-48z"/>
</svg>
