<svg xmlns="http://www.w3.org/2000/svg" height="64" width="64" version="1">
 <path style="opacity:.2" d="m4 56.2v2c0 1.55 1.2496 2.8 2.8008 2.8h50.399c1.55 0 2.8-1.25 2.8-2.8v-2c0 1.55-1.25 2.8-2.8 2.8h-50.399c-1.5504 0-2.8-1.25-2.8-2.8z"/>
 <polygon style="display:none;fill:#5a0e00" points="664 430.5 588 333 517.5 214 500 192 386 355 328 328 304 332.5 299.5 366 318.5 403.5 338 431 309.5 462 275.5 507 300 533 304 551 318.5 569.5 340.5 583 351.5 604.5 373.5 617 395 637.5 452.5 723 488.5 788.5 502 812.5 551.5 721.5 612.5 637 628.5 616 668 619.5 707 615 713 603 688.5 578 676.5 569.5 693.5 560.5 693.5 540 732.5 497.5" transform="matrix(.063142 0 0 .063142 -131 7.97)" display="none"/>
 <rect ry="2.8" style="fill:#0c202e" rx="2.8" transform="matrix(0,-1,-1,0,0,0)" height="55.999" width="55.999" y="-60" x="-60"/>
 <path style="opacity:.2;fill:#fff" d="m6.8008 4c-1.5512 0-2.8008 1.2496-2.8008 2.8008v1.0019c0-1.5511 1.2496-2.8007 2.8008-2.8007h50.398c1.55 0 2.801 1.2496 2.801 2.8007v-1.0019c0-1.5512-1.251-2.8008-2.801-2.8008h-50.398z"/>
 <path style="fill:#54abed" d="m47.999 22.075c-1.1774 0.52216-2.4426 0.87505-3.7708 1.0338 1.3555-0.81256 2.3964-2.0992 2.8866-3.6322-1.2685 0.75239-2.6736 1.2988-4.169 1.5933-1.1976-1.276-2.9038-2.0732-4.7922-2.0732-3.6258 0-6.5654 2.9394-6.5654 6.5649 0 0.51454 0.05818 1.0156 0.17008 1.4961-5.4564-0.27378-10.294-2.8874-13.532-6.8593-0.56512 0.96963-0.88877 2.0972-0.88877 3.3006 0 2.2776 1.159 4.2872 2.9206 5.4644-1.0762-0.03406-2.0884-0.32938-2.9736-0.8211-0.000492 0.0274-0.000586 0.05478-0.000586 0.08252 0 3.181 2.263 5.8344 5.2664 6.4374-0.5509 0.15002-1.1309 0.23022-1.7296 0.23022-0.42308 0-0.83433-0.04106-1.2352-0.11774 0.83543 2.6084 3.26 4.5064 6.1328 4.5594-2.2468 1.7607-5.0776 2.8104-8.1535 2.8104-0.52992 0-1.0525-0.031-1.5661-0.09162 2.9074 1.864 6.358 2.95 10.066 2.95 12.076 0 18.679-10.004 18.679-18.679 0-0.28466-0.0064-0.5678-0.019-0.84929 1.2826-0.92561 2.3958-2.082 3.276-3.3986"/>
</svg>
