<svg xmlns="http://www.w3.org/2000/svg" height="64" width="64" version="1">
 <path style="opacity:.2" d="m24 8v2h16v-2h-16zm-20 43v2c0 1.662 1.338 3 3 3h50c1.662 0 3-1.338 3-3v-2c0 1.662-1.338 3-3 3h-50c-1.662 0-3-1.338-3-3z"/>
 <path style="fill:#ccc" d="m24 5-4 4v6h-16v37c0 1.662 1.338 3 3 3h50c1.662 0 3-1.338 3-3v-37h-16v-6l-4-4zm0 4h16v6h-16z"/>
 <path style="opacity:.2;enable-background:new;fill-rule:evenodd" d="m63.958 45.894a15 15 0 0 1 -14.958 14.106 15 15 0 0 1 -14.958 -13.894 15 15 0 0 0 -0.042 0.894 15 15 0 0 0 15 15 15 15 0 0 0 15 -15 15 15 0 0 0 -0.042 -1.106z"/>
 <circle style="fill-rule:evenodd;fill:#357ec7;enable-background:new" cx="49" r="15" cy="46"/>
 <path style="fill:#fff" d="m-28.141 21.359v8h3l-6 8-6-8h3v-8zm-10 16h14v2h-14z"/>
 <path style="stroke-width:.041440;fill:#f2f2f2" d="m41.99 46.625 2.3864 1.3064 2.1748-2.0021-2.0303-1.9147-2.5309 1.3936s-0.49034 0.21411-0.49034 0.56786c0 0.40319 0.49034 0.64888 0.49034 0.64888zm12.068-7.6065c-0.04192-0.01092-0.08633-0.01877-0.13668-0.01877-0.3804 0-0.73551 0.24338-0.73551 0.24338l-7.8506 4.3229 1.7389 1.8816zm-6.4572 6.9991 6.4415 6.97c0.54181-0.10781 0.45179-0.92694 0.45091-1.0087v-12.167s0.01-0.66276-0.42264-0.78875zm-2.2588 2.4424 7.7621 4.2489s0.49492 0.29083 0.81429 0.29083c0.04288 0 0.08247-0.004 0.11933-0.01073l-6.8822-6.4899z"/>
</svg>
