<svg xmlns="http://www.w3.org/2000/svg" height="64" width="64" version="1">
 <rect style="opacity:.2" transform="matrix(0,-1,-1,0,0,0)" rx="3" ry="3" height="56" width="56" y="-60" x="-61"/>
 <rect style="fill:#e1b67b" transform="matrix(0,-1,-1,0,0,0)" rx="3" ry="3" height="56" width="56" y="-60" x="-60"/>
 <path style="opacity:.2;fill:#fff" d="m7 4c-1.662 0-3 1.338-3 3v1c0-1.662 1.338-3 3-3h50c1.662 0 3 1.338 3 3v-1c0-1.662-1.338-3-3-3h-50z"/>
 <path style="opacity:.2;stroke-width:.99740" d="m26.73 14-1.73 0.995 2.394 4.127c-4.376 2.103-4.394 7.01-4.394 7.01h18s-0.02-4.9073-4.394-7.0102l2.394-4.127-1.73-0.995-2.5898 4.4611c-0.794-0.17668-1.67-0.2875-2.676-0.2875-1.008 0-1.888 0.11042-2.684 0.2875l-2.59-4.461zm1.274 8.1528c0.554 0 0.996 0.44368 0.996 0.99082s-0.448 0.99878-0.996 0.99878c-0.554 0-1.004-0.44567-1.004-0.99878 0-0.54714 0.45-0.99082 1.004-0.99082zm8 0c0.554 0 0.996 0.44368 0.996 0.99082s-0.448 0.99878-0.996 0.99878c-0.554 0-1.004-0.44567-1.004-0.99878 0-0.54714 0.45-0.99082 1.004-0.99082zm8.084 4.9714c-1.15 0-2.088 1.0545-2.088 2.3537v9.2128c0 1.2992 0.938 2.3597 2.088 2.3597s1.912-1.0605 1.912-2.3597v-9.2128c0-1.3012-0.76-2.3557-1.912-2.3557m-21.088 0.002-0.00049 16.912c-0.000014 0.46901 0.52878 0.9948 1.0002 0.9948h3v3.7307c0 1.2375 0.792 2.2383 2 2.2383 1.2004 0 2.0398-1.0019 2-2.2381v-3.731h2v3.7307c0 1.2375 0.792 2.2383 2 2.2383 1.2004 0 2-1.0181 2-2.2381v-3.7305h3c0.472 0 1-0.52526 1-0.9948v-16.912zm-2.912 0c-1.1506 0-2.088 1.0545-2.088 2.3537v9.2128c0 1.2992 0.9374 2.3597 2.088 2.3597s1.912-1.0605 1.912-2.3597v-9.2128c0-1.3012-0.76-2.3557-1.912-2.3557m15.834-4.4169m-16.754 3.5017"/>
 <path style="stroke-width:.99740;fill:#5eab35" d="m26.73 13.5-1.73 0.995 2.394 4.127c-4.376 2.103-4.394 7.01-4.394 7.01h18s-0.02-4.9073-4.394-7.0102l2.394-4.127-1.73-0.995-2.5898 4.4611c-0.794-0.17668-1.67-0.2875-2.676-0.2875-1.008 0-1.888 0.11042-2.684 0.2875l-2.59-4.461zm1.274 8.1528c0.554 0 0.996 0.44368 0.996 0.99082s-0.448 0.99878-0.996 0.99878c-0.554 0-1.004-0.44567-1.004-0.99878 0-0.54714 0.45-0.99082 1.004-0.99082zm8 0c0.554 0 0.996 0.44368 0.996 0.99082s-0.448 0.99878-0.996 0.99878c-0.554 0-1.004-0.44567-1.004-0.99878 0-0.54714 0.45-0.99082 1.004-0.99082zm8.084 4.9714c-1.15 0-2.088 1.0545-2.088 2.3537v9.2128c0 1.2992 0.938 2.3597 2.088 2.3597s1.912-1.0605 1.912-2.3597v-9.2128c0-1.3012-0.76-2.3557-1.912-2.3557m-21.088 0.002-0.00049 16.912c-0.000014 0.46901 0.52878 0.9948 1.0002 0.9948h3v3.7307c0 1.2375 0.792 2.2383 2 2.2383 1.2004 0 2.0398-1.0019 2-2.2381v-3.731h2v3.7307c0 1.2375 0.792 2.2383 2 2.2383 1.2004 0 2-1.0181 2-2.2381v-3.7305h3c0.472 0 1-0.52526 1-0.9948v-16.912zm-2.912 0c-1.1506 0-2.088 1.0545-2.088 2.3537v9.2128c0 1.2992 0.9374 2.3597 2.088 2.3597s1.912-1.0605 1.912-2.3597v-9.2128c0-1.3012-0.76-2.3557-1.912-2.3557m15.834-4.4169m-16.754 3.5017"/>
</svg>
