<svg xmlns="http://www.w3.org/2000/svg" height="64" width="64" version="1">
 <rect style="fill:#8ed85e" transform="matrix(0,-1,-1,0,0,0)" rx="28" ry="28" height="56" width="56" y="-60" x="-60"/>
 <path style="opacity:.1;fill:#fff" d="m32 4c-15.512 0-28 12.488-28 28 0 0.114 0.0113 0.224 0.0176 0.336 0.3515-15.202 12.693-27.336 27.982-27.336s27.631 12.134 27.982 27.336c0.007-0.112 0.018-0.223 0.018-0.336 0-15.512-12.488-28-28-28z"/>
 <path style="opacity:.2" d="m59.982 32.664c-0.351 15.202-12.693 27.336-27.982 27.336-15.288 0-27.629-12.132-27.982-27.332-0.0066 0.111-0.018 0.22-0.018 0.332 0 15.512 12.488 28 28 28s28-12.488 28-28c0-0.11345-0.01128-0.22411-0.01758-0.33594z"/>
 <path d="m32.151 16-7.9063 9.4828h4.9414v8.0023a11.859 7.5862 0 0 1 -0.06699 0.75699 11.859 7.5862 0 0 1 -0.18444 0.74915 11.859 7.5862 0 0 1 -0.30055 0.73351 11.859 7.5862 0 0 1 -0.41354 0.71075 11.859 7.5862 0 0 1 -0.52233 0.68073 11.859 7.5862 0 0 1 -0.25679 0.28152l-0.000178 0.000178-7.941 7.619 4.151 3.983 8.499-8.155 8.499 8.155 4.151-3.983-7.9409-7.6193-0.0014-0.0015a11.859 7.5862 0 0 1 -0.25544 -0.2802 11.859 7.5862 0 0 1 -0.52237 -0.68077 11.859 7.5862 0 0 1 -0.41354 -0.71075 11.859 7.5862 0 0 1 -0.30055 -0.73347 11.859 7.5862 0 0 1 -0.18444 -0.74915 11.859 7.5862 0 0 1 -0.06653 -0.75467v-8.0047h4.9414z" style="opacity:.2;stroke-width:.10245"/>
 <path style="stroke-width:.10245;fill:#4a73ca" d="m32.151 15-7.9063 9.4828h4.9414v8.0023a11.859 7.5862 0 0 1 -0.06699 0.75699 11.859 7.5862 0 0 1 -0.18444 0.74915 11.859 7.5862 0 0 1 -0.30055 0.73351 11.859 7.5862 0 0 1 -0.41354 0.71075 11.859 7.5862 0 0 1 -0.52233 0.68073 11.859 7.5862 0 0 1 -0.25679 0.28152l-0.000178 0.000178-7.941 7.619 4.151 3.983 8.499-8.155 8.499 8.155 4.151-3.983-7.9409-7.6193-0.0014-0.0015a11.859 7.5862 0 0 1 -0.25544 -0.2802 11.859 7.5862 0 0 1 -0.52237 -0.68077 11.859 7.5862 0 0 1 -0.41354 -0.71075 11.859 7.5862 0 0 1 -0.30055 -0.73347 11.859 7.5862 0 0 1 -0.18444 -0.74915 11.859 7.5862 0 0 1 -0.06653 -0.75467v-8.0047h4.9414z"/>
</svg>
