<svg xmlns="http://www.w3.org/2000/svg" height="64" width="64" version="1" xmlns:xlink="http://www.w3.org/1999/xlink">
 <defs>
  <clipPath id="SVGID_6_">
   <use xlink:href="#SVGID_5_" height="1052.3622" width="744.09448" y="0" x="0" overflow="visible"/>
  </clipPath>
  <path id="SVGID_5_" d="m304.4 203.1h-12.8c1.1-2.2 1.6-4.4 1.6-6.5 0-5.5-3.8-9.4-11-13.5l-49.2-28.7v-57.4h-17.1l-4.1-5.8-2.9-3.4v-1.5h102.7l3.9 5.8 3.1 3.4v1.5h-22.8v31.9c0 12.9-6 19.5-15.8 23l-12-6.9c11.3-2.7 15.9-7.5 15.9-16.1 0-3.9-0.2-27.1-0.2-31.9h-38.6v55.9l45.3 26.2c8.6 5 14.4 11.3 14.4 20.1 0 1.2-0.1 2.5-0.4 3.9z"/>
 </defs>
 <path style="opacity:.2" d="m6 53.168v2c0 1.57 1.2902 2.832 2.8906 2.832h46.219c1.6 0 2.89-1.262 2.89-2.832v-2c0 1.57-1.29 2.832-2.89 2.832h-46.219c-1.5998 0-2.89-1.262-2.89-2.832z"/>
 <rect style="fill:#4d5f48" transform="matrix(0,-1,-1,0,0,0)" rx="2.834" ry="2.888" height="51.999" width="34" y="-58" x="-57"/>
 <path style="opacity:.2" d="m55.999 43a3 3 0 0 1 -3 3 3 3 0 0 1 -3 -3 3 3 0 0 1 3 -3 3 3 0 0 1 3 3z"/>
 <path style="opacity:.2;fill:#fff" d="m8.8906 23c-1.6004 0-2.8906 1.262-2.8906 2.832v1c0-1.57 1.2902-2.832 2.8906-2.832h46.218c1.6 0 2.891 1.262 2.891 2.832v-1c0-1.57-1.291-2.832-2.891-2.832h-46.218z"/>
 <path style="opacity:.2" d="m49.999 35a3 3 0 0 1 -3 3 3 3 0 0 1 -3 -3 3 3 0 0 1 3 -3 3 3 0 0 1 3 3z"/>
 <path style="fill:#b7bbb3" d="m49.999 34a3 3 0 0 1 -3 3 3 3 0 0 1 -3 -3 3 3 0 0 1 3 -3 3 3 0 0 1 3 3z"/>
 <path style="opacity:.2" d="m20 35a3 3 0 0 1 -3 3 3 3 0 0 1 -3 -3 3 3 0 0 1 3 -3 3 3 0 0 1 3 3z"/>
 <path style="opacity:.2" d="m22.666 8.0004h18.666c1.478 0 2.668 1.241 2.668 2.7826v19.478c0 4.174-9.3339 6.9579-12 9.7399-2.666-2.782-12-5.5659-12-9.7399v-19.477c0-1.5416 1.19-2.7826 2.666-2.7826z"/>
 <path style="fill:#4caf50" d="m22.666 7.0006h18.666c1.478 0 2.668 1.241 2.668 2.7826v19.478c0 4.174-9.3339 6.9579-12 9.7399-2.666-2.782-12-5.5659-12-9.7399v-19.477c0-1.5416 1.19-2.7826 2.666-2.7826z"/>
 <path style="fill:#b7bbb3" d="m20 34a3 3 0 0 1 -3 3 3 3 0 0 1 -3 -3 3 3 0 0 1 3 -3 3 3 0 0 1 3 3z"/>
 <path style="opacity:.2" d="m16 43a3 3 0 0 1 -3 3 3 3 0 0 1 -3 -3 3 3 0 0 1 3 -3 3 3 0 0 1 3 3z"/>
 <path style="fill:#b7bbb3" d="m16 42a3 3 0 0 1 -3 3 3 3 0 0 1 -3 -3 3 3 0 0 1 3 -3 3 3 0 0 1 3 3z"/>
 <path style="opacity:.2" d="m26 43a3 3 0 0 1 -3 3 3 3 0 0 1 -3 -3 3 3 0 0 1 3 -3 3 3 0 0 1 3 3z"/>
 <path style="fill:#b7bbb3" d="m26 42a3 3 0 0 1 -3 3 3 3 0 0 1 -3 -3 3 3 0 0 1 3 -3 3 3 0 0 1 3 3z"/>
 <path style="opacity:.2" d="m36 43a3 3 0 0 1 -3 3 3 3 0 0 1 -3 -3 3 3 0 0 1 3 -3 3 3 0 0 1 3 3z"/>
 <path style="fill:#b7bbb3" d="m36 42a3 3 0 0 1 -3 3 3 3 0 0 1 -3 -3 3 3 0 0 1 3 -3 3 3 0 0 1 3 3z"/>
 <path style="opacity:.2" d="m46 43a3 3 0 0 1 -3 3 3 3 0 0 1 -3 -3 3 3 0 0 1 3 -3 3 3 0 0 1 3 3z"/>
 <path style="fill:#b7bbb3" d="m46 42a3 3 0 0 1 -3 3 3 3 0 0 1 -3 -3 3 3 0 0 1 3 -3 3 3 0 0 1 3 3z"/>
 <path style="fill:#b7bbb3" d="m55.999 42a3 3 0 0 1 -3 3 3 3 0 0 1 -3 -3 3 3 0 0 1 3 -3 3 3 0 0 1 3 3z"/>
 <rect style="fill:#b7bbb3" rx="1.466" ry="1.5" height="6" width="43.999" y="47" x="10"/>
 <g style="opacity:.2" transform="matrix(.12819 0 0 .12842 -4.0643 2.1781)">
  <clipPath>
   <use xlink:href="#SVGID_5_" height="1052.3622" width="744.09448" y="0" x="0" overflow="visible"/>
  </clipPath>
  <path d="m195.8 73.1h135.8v143h-135.8z" clip-path="url(#SVGID_6_)" transform="scale(1.0667)"/>
 </g>
 <g style="fill:#fff" transform="matrix(.12819 0 0 .12842 -4.0643 1.1781)">
  <clipPath>
   <use xlink:href="#SVGID_5_" height="1052.3622" width="744.09448" y="0" x="0" overflow="visible"/>
  </clipPath>
  <path style="fill:#fff" d="m195.8 73.1h135.8v143h-135.8z" clip-path="url(#SVGID_6_)" transform="scale(1.0667)"/>
 </g>
</svg>
