<svg xmlns="http://www.w3.org/2000/svg" height="64" width="64" version="1">
 <path style="opacity:.2" d="m4 56v2c0 1.662 1.338 3 3 3h50c1.662 0 3-1.338 3-3v-2c0 1.662-1.338 3-3 3h-50c-1.662 0-3-1.338-3-3z"/>
 <rect ry="3" style="fill:#e7e7e7" rx="3" transform="matrix(0,-1,-1,0,0,0)" height="56" width="56" y="-60" x="-60"/>
 <path style="opacity:.1;fill:#fff" d="m7 4c-1.662 0-3 1.338-3 3v1c0-1.662 1.338-3 3-3h50c1.662 0 3 1.338 3 3v-1c0-1.662-1.338-3-3-3h-50z"/>
 <g style="opacity:.2" transform="matrix(1.1481 0 0 1.1667 -4.7379 -4.3335)">
  <path d="m32 26.091-13.34 10.773a1.6875 1.8168 0 0 0 0.02373 0.0582 1.6875 1.8168 0 0 0 0.08438 0.15755 1.6875 1.8168 0 0 0 0.09756 0.14762 1.6875 1.8168 0 0 0 0.11206 0.13626 1.6875 1.8168 0 0 0 0.06724 0.06813l0.27949 0.22568 10.468 8.4524 0.36914 0.29807a3.375 3.6336 0 0 0 0.22148 0.1462 3.375 3.6336 0 0 0 0.30322 0.15755 3.375 3.6336 0 0 0 0.31641 0.1249 3.375 3.6336 0 0 0 0.32695 0.08942 3.375 3.6336 0 0 0 0.33354 0.05394 3.375 3.6336 0 0 0 0.3375 0.01987v-0.0015a3.375 3.6332 0 0 0 0.3375 -0.01845 3.375 3.6332 0 0 0 0.33354 -0.05394 3.375 3.6332 0 0 0 0.32695 -0.08942 3.375 3.6332 0 0 0 0.31641 -0.1249 3.375 3.6332 0 0 0 0.30322 -0.15755 3.375 3.6332 0 0 0 0.22148 -0.1462l0.369-0.298 10.468-8.452 0.28-0.226a1.6875 1.8166 0 0 0 0.06724 -0.06813 1.6875 1.8166 0 0 0 0.11206 -0.13626 1.6875 1.8166 0 0 0 0.09756 -0.14762 1.6875 1.8166 0 0 0 0.08438 -0.15755 1.6875 1.8166 0 0 0 0.06855 -0.16607 1.6875 1.8166 0 0 0 0.05274 -0.17174 1.6875 1.8166 0 0 0 0.03692 -0.17742 1.6875 1.8166 0 0 0 0.02109 -0.18026 1.6875 1.8166 0 0 0 0.0039 -0.12913v-17.278a1.6875 1.8166 0 0 0 -0.0079 -0.18168 1.6875 1.8166 0 0 0 -0.02636 -0.17884 1.6875 1.8166 0 0 0 -0.04087 -0.176 1.6875 1.8166 0 0 0 -0.05801 -0.17174 1.6875 1.8166 0 0 0 -0.07383 -0.16323 1.6875 1.8166 0 0 0 -0.08833 -0.15471 1.6875 1.8166 0 0 0 -0.10151 -0.14478 1.6875 1.8166 0 0 0 -0.1147 -0.132 1.6875 1.8166 0 0 0 -0.125 -0.121 1.6875 1.8166 0 0 0 -0.137 -0.105 1.6875 1.8166 0 0 0 -0.146 -0.091 1.6875 1.8166 0 0 0 -0.155 -0.074 1.6875 1.8166 0 0 0 -0.16 -0.056 1.6875 1.8166 0 0 0 -0.164 -0.042 1.6875 1.8166 0 0 0 -0.167 -0.022 1.6875 1.8166 0 0 0 -0.12 -0.006 1.6875 1.8166 0 0 0 -0.169 0.008 1.6875 1.8166 0 0 0 -0.16611 0.02839 1.6875 1.8166 0 0 0 -0.16348 0.044 1.6875 1.8166 0 0 0 -0.1582 0.06245 1.6875 1.8166 0 0 0 -0.15293 0.07948 1.6875 1.8166 0 0 0 -0.10547 0.06813l-0.19248 0.15613z"/>
  <path d="m18.5 18.817v17.281a1.6875 1.8168 0 0 0 0.004 0.12916 1.6875 1.8168 0 0 0 0.02109 0.18026 1.6875 1.8168 0 0 0 0.03691 0.17742 1.6875 1.8168 0 0 0 0.05273 0.17174 1.6875 1.8168 0 0 0 0.04482 0.10787l13.34-10.773-10.705-8.644-0.193-0.156a1.6875 1.8168 0 0 0 -0.004 -0.0028 1.6875 1.8168 0 0 0 -0.10151 -0.0653 1.6875 1.8168 0 0 0 -0.15293 -0.07949 1.6875 1.8168 0 0 0 -0.1582 -0.06245 1.6875 1.8168 0 0 0 -0.16348 -0.04542 1.6875 1.8168 0 0 0 -0.16611 -0.02697 1.6875 1.8168 0 0 0 -0.16875 -0.0085 1.6875 1.8168 0 0 0 -0.11997 0.0057 1.6875 1.8168 0 0 0 -0.16743 0.02271 1.6875 1.8168 0 0 0 -0.16348 0.04116 1.6875 1.8168 0 0 0 -0.16084 0.05677 1.6875 1.8168 0 0 0 -0.15425 0.07381 1.6875 1.8168 0 0 0 -0.14634 0.09084 1.6875 1.8168 0 0 0 -0.13711 0.10503 1.6875 1.8168 0 0 0 -0.12656 0.12065 1.6875 1.8168 0 0 0 -0.1147 0.132 1.6875 1.8168 0 0 0 -0.10151 0.14479 1.6875 1.8168 0 0 0 -0.08833 0.15471 1.6875 1.8168 0 0 0 -0.07383 0.16323 1.6875 1.8168 0 0 0 -0.05801 0.17032 1.6875 1.8168 0 0 0 -0.04087 0.17742 1.6875 1.8168 0 0 0 -0.02637 0.17742 1.6875 1.8168 0 0 0 -0.0079 0.18026z"/>
  <path d="m28.774 23.487-10.274 13.505 13.5-10.901z"/>
 </g>
 <g transform="matrix(1.1481 0 0 1.1667 -4.7379 -5.3335)">
  <path style="fill:#f2a330" d="m32 26.091-13.34 10.773a1.6875 1.8168 0 0 0 0.02373 0.0582 1.6875 1.8168 0 0 0 0.08438 0.15755 1.6875 1.8168 0 0 0 0.09756 0.14762 1.6875 1.8168 0 0 0 0.11206 0.13626 1.6875 1.8168 0 0 0 0.06724 0.06813l0.27949 0.22568 10.468 8.4524 0.36914 0.29807a3.375 3.6336 0 0 0 0.22148 0.1462 3.375 3.6336 0 0 0 0.30322 0.15755 3.375 3.6336 0 0 0 0.31641 0.1249 3.375 3.6336 0 0 0 0.32695 0.08942 3.375 3.6336 0 0 0 0.33354 0.05394 3.375 3.6336 0 0 0 0.3375 0.01987v-0.0015a3.375 3.6332 0 0 0 0.3375 -0.01845 3.375 3.6332 0 0 0 0.33354 -0.05394 3.375 3.6332 0 0 0 0.32695 -0.08942 3.375 3.6332 0 0 0 0.31641 -0.1249 3.375 3.6332 0 0 0 0.30322 -0.15755 3.375 3.6332 0 0 0 0.22148 -0.1462l0.369-0.298 10.468-8.452 0.28-0.226a1.6875 1.8166 0 0 0 0.06724 -0.06813 1.6875 1.8166 0 0 0 0.11206 -0.13626 1.6875 1.8166 0 0 0 0.09756 -0.14762 1.6875 1.8166 0 0 0 0.08438 -0.15755 1.6875 1.8166 0 0 0 0.06855 -0.16607 1.6875 1.8166 0 0 0 0.05274 -0.17174 1.6875 1.8166 0 0 0 0.03692 -0.17742 1.6875 1.8166 0 0 0 0.02109 -0.18026 1.6875 1.8166 0 0 0 0.0039 -0.12913v-17.278a1.6875 1.8166 0 0 0 -0.0079 -0.18168 1.6875 1.8166 0 0 0 -0.02636 -0.17884 1.6875 1.8166 0 0 0 -0.04087 -0.176 1.6875 1.8166 0 0 0 -0.05801 -0.17174 1.6875 1.8166 0 0 0 -0.07383 -0.16323 1.6875 1.8166 0 0 0 -0.08833 -0.15471 1.6875 1.8166 0 0 0 -0.10151 -0.14478 1.6875 1.8166 0 0 0 -0.1147 -0.132 1.6875 1.8166 0 0 0 -0.125 -0.121 1.6875 1.8166 0 0 0 -0.137 -0.105 1.6875 1.8166 0 0 0 -0.146 -0.091 1.6875 1.8166 0 0 0 -0.155 -0.074 1.6875 1.8166 0 0 0 -0.16 -0.056 1.6875 1.8166 0 0 0 -0.164 -0.042 1.6875 1.8166 0 0 0 -0.167 -0.022 1.6875 1.8166 0 0 0 -0.12 -0.006 1.6875 1.8166 0 0 0 -0.169 0.008 1.6875 1.8166 0 0 0 -0.16611 0.02839 1.6875 1.8166 0 0 0 -0.16348 0.044 1.6875 1.8166 0 0 0 -0.1582 0.06245 1.6875 1.8166 0 0 0 -0.15293 0.07948 1.6875 1.8166 0 0 0 -0.10547 0.06813l-0.19248 0.15613z"/>
  <path style="fill:#ee7134" d="m18.5 18.817v17.281a1.6875 1.8168 0 0 0 0.004 0.12916 1.6875 1.8168 0 0 0 0.02109 0.18026 1.6875 1.8168 0 0 0 0.03691 0.17742 1.6875 1.8168 0 0 0 0.05273 0.17174 1.6875 1.8168 0 0 0 0.04482 0.10787l13.34-10.773-10.705-8.644-0.193-0.156a1.6875 1.8168 0 0 0 -0.004 -0.0028 1.6875 1.8168 0 0 0 -0.10151 -0.0653 1.6875 1.8168 0 0 0 -0.15293 -0.07949 1.6875 1.8168 0 0 0 -0.1582 -0.06245 1.6875 1.8168 0 0 0 -0.16348 -0.04542 1.6875 1.8168 0 0 0 -0.16611 -0.02697 1.6875 1.8168 0 0 0 -0.16875 -0.0085 1.6875 1.8168 0 0 0 -0.11997 0.0057 1.6875 1.8168 0 0 0 -0.16743 0.02271 1.6875 1.8168 0 0 0 -0.16348 0.04116 1.6875 1.8168 0 0 0 -0.16084 0.05677 1.6875 1.8168 0 0 0 -0.15425 0.07381 1.6875 1.8168 0 0 0 -0.14634 0.09084 1.6875 1.8168 0 0 0 -0.13711 0.10503 1.6875 1.8168 0 0 0 -0.12656 0.12065 1.6875 1.8168 0 0 0 -0.1147 0.132 1.6875 1.8168 0 0 0 -0.10151 0.14479 1.6875 1.8168 0 0 0 -0.08833 0.15471 1.6875 1.8168 0 0 0 -0.07383 0.16323 1.6875 1.8168 0 0 0 -0.05801 0.17032 1.6875 1.8168 0 0 0 -0.04087 0.17742 1.6875 1.8168 0 0 0 -0.02637 0.17742 1.6875 1.8168 0 0 0 -0.0079 0.18026z"/>
  <path style="fill:#cd583e" d="m28.774 23.487-10.274 13.505 13.5-10.901z"/>
 </g>
</svg>
