<svg xmlns="http://www.w3.org/2000/svg" height="64" width="64" version="1.1" viewBox="0 0 64 64">
 <path style="opacity:.2" d="m10 56v2c0 1.662 1.338 3 3 3h38c1.662 0 3-1.338 3-3v-2c0 1.662-1.338 3-3 3h-38c-1.662 0-3-1.338-3-3z"/>
 <path style="fill:#636" d="m13 4c-1.662 0-3 1.338-3 3v50c0 1.662 1.338 3 3 3h38c1.662 0 3-1.338 3-3v-50c0-1.662-1.338-3-3-3h-38z"/>
 <path style="opacity:.2" d="m13 4c-1.662 0-3 1.338-3 3v50c0 1.662 1.338 3 3 3h5v-56z"/>
 <path style="opacity:.2;fill:#fff" d="m13 4c-1.662 0-3 1.338-3 3v1c0-1.662 1.338-3 3-3h38c1.662 0 3 1.338 3 3v-1c0-1.662-1.338-3-3-3h-38z"/>
 <g style="opacity:.2" transform="matrix(-1,0,0,1,60,3)">
  <path style="opacity:1" d="m24 20a10 10 0 0 0 -10 10 10 10 0 0 0 10 10 10 10 0 0 0 10 -10 10 10 0 0 0 -10 -10zm0 2a8 8 0 0 1 8 8 8 8 0 0 1 -8 8 8 8 0 0 1 -8 -8 8 8 0 0 1 8 -8z"/>
  <path style="opacity:1" d="m24 24a6 6 0 0 0 -6 6 6 6 0 0 0 6 6 6 6 0 0 0 4.127 -1.654l-1.629-1.223a4 4 0 0 1 -2.498 0.877 4 4 0 0 1 -4 -4 4 4 0 0 1 4 -4 4 4 0 0 1 2.494 0.879l1.637-1.227a6 6 0 0 0 -4.131 -1.652z"/>
 </g>
 <g style="fill:#dfdfdf" transform="matrix(-1,0,0,1,60,2)">
  <path style="fill:#dfdfdf" d="m24 20a10 10 0 0 0 -10 10 10 10 0 0 0 10 10 10 10 0 0 0 10 -10 10 10 0 0 0 -10 -10zm0 2a8 8 0 0 1 8 8 8 8 0 0 1 -8 8 8 8 0 0 1 -8 -8 8 8 0 0 1 8 -8z"/>
  <path style="fill:#dfdfdf" d="m24 24a6 6 0 0 0 -6 6 6 6 0 0 0 6 6 6 6 0 0 0 4.127 -1.654l-1.629-1.223a4 4 0 0 1 -2.498 0.877 4 4 0 0 1 -4 -4 4 4 0 0 1 4 -4 4 4 0 0 1 2.494 0.879l1.637-1.227a6 6 0 0 0 -4.131 -1.652z"/>
 </g>
</svg>
