<svg xmlns="http://www.w3.org/2000/svg" height="64" width="64" version="1">
 <rect ry="28" style="fill:#b4c931" rx="28" transform="matrix(0,-1,-1,0,0,0)" height="56" width="56" y="-60" x="-60"/>
 <path style="opacity:.1;fill:#fff" d="m32 4c-15.512 0-28 12.488-28 28 0 0.114 0.0113 0.224 0.0176 0.336 0.3515-15.202 12.693-27.336 27.982-27.336s27.631 12.134 27.982 27.336c0.007-0.112 0.018-0.223 0.018-0.336 0-15.512-12.488-28-28-28z"/>
 <path style="opacity:.2" d="m59.982 32.664c-0.351 15.202-12.693 27.336-27.982 27.336-15.288 0-27.629-12.132-27.982-27.332-0.0066 0.111-0.018 0.22-0.018 0.332 0 15.512 12.488 28 28 28s28-12.488 28-28c0-0.113-0.011-0.224-0.018-0.336z"/>
 <path d="m39.565 16.5v3.0994h-1.438v12.523l2.873 3.299v3.0798h-7.286v10.999h-3.429v-11h-7.285v-3.0796l2.8728-3.2988v-12.521h-1.438v-3.1h13.692z" style="opacity:.2;stroke-width:.57212"/>
 <path style="stroke-width:.57212;fill:#f2f2f2" d="m39.565 15.5v3.0994h-1.438v12.523l2.873 3.299v3.0798h-7.286v10.999h-3.429v-11h-7.285v-3.0796l2.8728-3.2988v-12.521h-1.438v-3.1h13.692z"/>
</svg>
