<svg xmlns="http://www.w3.org/2000/svg" height="64" width="64" version="1">
 <rect style="fill:#3c6caf" transform="matrix(0,-1,-1,0,0,0)" rx="28" ry="28" height="56" width="56" y="-60" x="-60"/>
 <path style="opacity:.1;fill:#fff" d="m32 4c-15.512 0-28 12.488-28 28 0 0.114 0.0113 0.224 0.0176 0.336 0.3515-15.202 12.693-27.336 27.982-27.336s27.631 12.134 27.982 27.336c0.007-0.112 0.018-0.223 0.018-0.336 0-15.512-12.488-28-28-28z"/>
 <path style="opacity:.2" d="m59.982 32.664c-0.351 15.202-12.693 27.336-27.982 27.336-15.288 0-27.629-12.132-27.982-27.332-0.0066 0.111-0.018 0.22-0.018 0.332 0 15.512 12.488 28 28 28s28-12.488 28-28c0-0.11345-0.01128-0.22411-0.01758-0.33594z"/>
 <circle cx="45.848" cy="36.617" r="6" style="opacity:.2;stroke-width:1.1203"/>
 <circle r="6" style="stroke-width:1.1203;fill:#f2be19" cx="45.848" cy="35.617"/>
 <path style="opacity:.2;stroke-width:2.5002" d="m4.5918 27.259c-0.00601 0.02905-0.01947 0.05491-0.025391 0.08398-0.3718 1.826-0.5664 3.718-0.5664 5.657s0.19464 3.8302 0.56641 5.6562 0.92039 3.5876 1.627 5.2637c0.46773 1.1095 1.1041 2.1181 1.7051 3.1484a77.186 77.186 0 0 0 50.87 -21.883c-0.303-1.044-0.544-2.116-0.961-3.105-0.707-1.676-1.572-3.267-2.577-4.756-1.0044-1.4891-2.1488-2.8754-3.4141-4.1406-0.82465-0.82465-1.7768-1.5079-2.6992-2.2246a77.186 77.186 0 0 1 -3.9043 2.9668 77.186 77.186 0 0 1 -6.5781 4.0332 77.186 77.186 0 0 1 -6.9473 3.3555 77.186 77.186 0 0 1 -7.248 2.6465 77.186 77.186 0 0 1 -7.4746 1.9082 77.186 77.186 0 0 1 -7.6289 1.1543 77.186 77.186 0 0 1 -4.7441 0.23633z"/>
 <path style="stroke-width:2.5002;fill:#589ac7" d="m4.5918 26.26c-0.006 0.029-0.0195 0.055-0.0254 0.084-0.3718 1.826-0.5664 3.717-0.5664 5.656s0.1946 3.83 0.5664 5.656 0.9204 3.588 1.627 5.264c0.4677 1.109 1.1041 2.118 1.705 3.148a77.186 77.186 0 0 0 50.87 -21.882c-0.303-1.044-0.544-2.117-0.961-3.106-0.707-1.676-1.572-3.267-2.577-4.756-1.004-1.489-2.148-2.875-3.414-4.14-0.824-0.825-1.776-1.508-2.699-2.225a77.186 77.186 0 0 1 -3.904 2.967 77.186 77.186 0 0 1 -6.578 4.033 77.186 77.186 0 0 1 -6.947 3.355 77.186 77.186 0 0 1 -7.249 2.647 77.186 77.186 0 0 1 -7.474 1.908 77.186 77.186 0 0 1 -7.6291 1.154 77.186 77.186 0 0 1 -4.7441 0.237z"/>
 <path style="opacity:.2;stroke-width:1.9593" d="m9.8301 15.039c-0.3382 0.442-0.7487 0.823-1.0606 1.285-1.0044 1.489-1.8696 3.08-2.5761 4.756-0.7066 1.676-1.2552 3.438-1.627 5.264-0.1202 0.59-0.101 1.225-0.1836 1.828a60.489 60.489 0 0 1 1.459 0.705 60.489 60.489 0 0 1 5.1562 3.16 60.489 60.489 0 0 1 4.813 3.66 60.489 60.489 0 0 1 4.423 4.121 60.489 60.489 0 0 1 3.991 4.543 60.489 60.489 0 0 1 3.517 4.918 60.489 60.489 0 0 1 3.008 5.244 60.489 60.489 0 0 1 2.4 5.362c1.529-0.063 3.052-0.155 4.506-0.451 0.535-0.109 1.018-0.338 1.541-0.477a60.489 60.489 0 0 0 -29.367 -43.918z"/>
 <path style="stroke-width:1.9593;fill:#1f292a" d="m9.8301 15.039c-0.3382 0.442-0.7487 0.823-1.0606 1.285-1.0044 1.489-1.8696 3.08-2.5761 4.756-0.7066 1.676-1.2552 3.438-1.627 5.264-0.0575 0.282-0.0389 0.589-0.0879 0.875a60.489 60.489 0 0 1 1.3633 0.658 60.489 60.489 0 0 1 5.1562 3.16 60.489 60.489 0 0 1 4.813 3.66 60.489 60.489 0 0 1 4.423 4.121 60.489 60.489 0 0 1 3.991 4.543 60.489 60.489 0 0 1 3.517 4.918 60.489 60.489 0 0 1 3.008 5.244 60.489 60.489 0 0 1 2.471 5.52 60.489 60.489 0 0 1 0.267 0.809c1.41-0.075 2.823-0.144 4.168-0.418 0.535-0.109 1.018-0.338 1.541-0.477a60.489 60.489 0 0 0 -29.367 -43.918z"/>
 <g style="opacity:.2" transform="matrix(.98509 0 0 .99744 18.869 19.04)">
  <path d="m21.711 16.212c0.057-0.303 0.175-0.739 0.356-1.307l0.568-1.79c0.199-0.625 0.374-1.226 0.526-1.804 0.15-0.578 0.227-1.01 0.227-1.293 0-0.966-0.374-1.714-1.122-2.245-0.749-0.53-1.786-0.795-3.112-0.795-0.53 0.34-1.075 0.947-1.634 1.818-0.559 0.872-1.132 1.989-1.719 3.353l-0.199 0.028c0.057-0.284 0.123-0.558 0.2-0.824 0.037-0.227 0.08-0.464 0.127-0.71s0.071-0.464 0.071-0.654c0-0.947-0.365-1.685-1.094-2.216-0.73-0.53-1.747-0.795-3.054-0.795-0.53 0.34-1.075 0.947-1.634 1.818-0.559 0.872-1.132 1.989-1.719 3.353l-0.199 0.028c0.076-0.511 0.17-1.023 0.284-1.534 0.114-0.512 0.218-0.966 0.313-1.364l0.34-1.364-0.397-0.596c-0.72 0.056-1.459 0.113-2.216 0.17-0.644 0.038-1.336 0.076-2.074 0.114-0.74 0.038-1.421 0.056-2.046 0.056l-0.341 2.33h0.795c0.379 0 0.64 0.09 0.782 0.27s0.184 0.498 0.128 0.952a33.29 33.29 0 0 0 -0.142 0.867c-0.057 0.37-0.124 0.786-0.2 1.25-0.075 0.464-0.156 0.962-0.24 1.492-0.086 0.53-0.167 1.051-0.242 1.562-0.21 1.213-0.427 2.52-0.654 3.922l0.568 0.653c0.53 0 1.047-0.038 1.549-0.114a6.59 6.59 0 0 0 1.321 -0.326c0.379-0.142 0.687-0.299 0.924-0.47 0.236-0.17 0.373-0.359 0.412-0.567l0.198-1.677c0.303-0.89 0.616-1.71 0.938-2.458s0.625-1.392 0.91-1.932c0.284-0.54 0.544-0.96 0.78-1.264 0.237-0.303 0.431-0.455 0.583-0.455 0.36 0 0.54 0.218 0.54 0.654 0 0.133-0.028 0.35-0.085 0.653s-0.128 0.654-0.213 1.052c-0.085 0.397-0.18 0.828-0.284 1.292-0.105 0.465-0.213 0.924-0.327 1.378-0.266 1.08-0.568 2.274-0.91 3.58l0.569 0.654c0.53 0 1.046-0.038 1.548-0.114a6.91 6.91 0 0 0 1.336 -0.326c0.388-0.142 0.7-0.299 0.938-0.47 0.236-0.17 0.364-0.359 0.383-0.567l0.142-1.364c0.36-0.928 0.72-1.785 1.08-2.572 0.36-0.786 0.7-1.463 1.023-2.031 0.322-0.569 0.62-1.013 0.895-1.336 0.274-0.322 0.497-0.483 0.668-0.483 0.34 0 0.511 0.266 0.511 0.796 0 0.265-0.09 0.715-0.27 1.35-0.18 0.634-0.38 1.311-0.597 2.031-0.218 0.72-0.416 1.402-0.596 2.046s-0.27 1.118-0.27 1.42c0 0.588 0.146 1.014 0.44 1.28 0.294 0.264 0.772 0.397 1.435 0.397 0.398 0 0.79-0.071 1.18-0.213 0.387-0.142 0.81-0.384 1.264-0.725 0.454-0.34 0.966-0.79 1.534-1.35a44.251 44.251 0 0 0 1.989 -2.116l-0.54-1.364-0.682-0.114c-0.568 0.493-0.937 0.81-1.108 0.952-0.17 0.142-0.294 0.213-0.37 0.213z"/>
 </g>
 <g style="fill:#f9f9f9" transform="matrix(.98509 0 0 .99744 18.869 18.04)">
  <path style="fill:#f9f9f9" d="m21.711 16.212c0.057-0.303 0.175-0.739 0.356-1.307l0.568-1.79c0.199-0.625 0.374-1.226 0.526-1.804 0.15-0.578 0.227-1.01 0.227-1.293 0-0.966-0.374-1.714-1.122-2.245-0.749-0.53-1.786-0.795-3.112-0.795-0.53 0.34-1.075 0.947-1.634 1.818-0.559 0.872-1.132 1.989-1.719 3.353l-0.199 0.028c0.057-0.284 0.123-0.558 0.2-0.824 0.037-0.227 0.08-0.464 0.127-0.71s0.071-0.464 0.071-0.654c0-0.947-0.365-1.685-1.094-2.216-0.73-0.53-1.747-0.795-3.054-0.795-0.53 0.34-1.075 0.947-1.634 1.818-0.559 0.872-1.132 1.989-1.719 3.353l-0.199 0.028c0.076-0.511 0.17-1.023 0.284-1.534 0.114-0.512 0.218-0.966 0.313-1.364l0.34-1.364-0.397-0.596c-0.72 0.056-1.459 0.113-2.216 0.17-0.644 0.038-1.336 0.076-2.074 0.114-0.74 0.038-1.421 0.056-2.046 0.056l-0.341 2.33h0.795c0.379 0 0.64 0.09 0.782 0.27s0.184 0.498 0.128 0.952a33.29 33.29 0 0 0 -0.142 0.867c-0.057 0.37-0.124 0.786-0.2 1.25-0.075 0.464-0.156 0.962-0.24 1.492-0.086 0.53-0.167 1.051-0.242 1.562-0.21 1.213-0.427 2.52-0.654 3.922l0.568 0.653c0.53 0 1.047-0.038 1.549-0.114a6.59 6.59 0 0 0 1.321 -0.326c0.379-0.142 0.687-0.299 0.924-0.47 0.236-0.17 0.373-0.359 0.412-0.567l0.198-1.677c0.303-0.89 0.616-1.71 0.938-2.458s0.625-1.392 0.91-1.932c0.284-0.54 0.544-0.96 0.78-1.264 0.237-0.303 0.431-0.455 0.583-0.455 0.36 0 0.54 0.218 0.54 0.654 0 0.133-0.028 0.35-0.085 0.653s-0.128 0.654-0.213 1.052c-0.085 0.397-0.18 0.828-0.284 1.292-0.105 0.465-0.213 0.924-0.327 1.378-0.266 1.08-0.568 2.274-0.91 3.58l0.569 0.654c0.53 0 1.046-0.038 1.548-0.114a6.91 6.91 0 0 0 1.336 -0.326c0.388-0.142 0.7-0.299 0.938-0.47 0.236-0.17 0.364-0.359 0.383-0.567l0.142-1.364c0.36-0.928 0.72-1.785 1.08-2.572 0.36-0.786 0.7-1.463 1.023-2.031 0.322-0.569 0.62-1.013 0.895-1.336 0.274-0.322 0.497-0.483 0.668-0.483 0.34 0 0.511 0.266 0.511 0.796 0 0.265-0.09 0.715-0.27 1.35-0.18 0.634-0.38 1.311-0.597 2.031-0.218 0.72-0.416 1.402-0.596 2.046s-0.27 1.118-0.27 1.42c0 0.588 0.146 1.014 0.44 1.28 0.294 0.264 0.772 0.397 1.435 0.397 0.398 0 0.79-0.071 1.18-0.213 0.387-0.142 0.81-0.384 1.264-0.725 0.454-0.34 0.966-0.79 1.534-1.35a44.251 44.251 0 0 0 1.989 -2.116l-0.54-1.364-0.682-0.114c-0.568 0.493-0.937 0.81-1.108 0.952-0.17 0.142-0.294 0.213-0.37 0.213z"/>
 </g>
 <path style="opacity:.2;stroke-width:1.8672" d="m32.725 4.0723c-0.247-0.0064-0.477-0.0723-0.725-0.0723-1.939 0-3.83 0.1946-5.656 0.5664s-3.588 0.9204-5.264 1.627c-1.676 0.7065-3.267 1.5717-4.756 2.5761-0.381 0.2574-0.693 0.5997-1.06 0.875a10 10 0 0 0 -0.053 1.0075 10 10 0 0 0 10 10 10 10 0 0 0 10 -10 10 10 0 0 0 -2.486 -6.5797z"/>
 <path style="stroke-width:1.8672;fill:#f2be19" d="m33.557 4.1562c-0.526-0.0291-1.023-0.1562-1.557-0.1562-1.939 0-3.83 0.1946-5.656 0.5664s-3.588 0.9204-5.264 1.627c-1.676 0.7065-3.267 1.5717-4.756 2.5761-0.4 0.2701-0.728 0.6281-1.113 0.918a10 10 0 0 0 9.998 9.9645 10 10 0 0 0 10 -9.9997 10 10 0 0 0 -1.652 -5.4961z"/>
</svg>
