<svg xmlns="http://www.w3.org/2000/svg" height="64" width="64" version="1">
 <polygon style="display:none;fill:#5a0e00" points="693.5 560.5 693.5 540 732.5 497.5 664 430.5 588 333 517.5 214 500 192 386 355 328 328 304 332.5 299.5 366 318.5 403.5 338 431 309.5 462 275.5 507 300 533 304 551 318.5 569.5 340.5 583 351.5 604.5 373.5 617 395 637.5 452.5 723 488.5 788.5 502 812.5 551.5 721.5 612.5 637 628.5 616 668 619.5 707 615 713 603 688.5 578 676.5 569.5" display="none" transform="matrix(.063142 0 0 .063142 -131 7.97)"/>
 <path style="fill:#fd6e42" d="m41 41v18h15.3c1.496 0 2.7-1.204 2.7-2.7v-15.3h-18z"/>
 <rect style="fill:#fdcc2c" height="18" width="18" y="41" x="23"/>
 <path style="fill:#e43a3f" d="m5 41v15.3c0 1.4957 1.2041 2.6998 2.6998 2.6998h15.3v-18h-18z"/>
 <rect style="fill:#6f8bfb" height="18" width="18" y="23" x="5"/>
 <rect style="fill:#a03cb0" height="18" width="18" y="23" x="23"/>
 <rect style="fill:#e43a3f" height="18" width="18" y="23" x="41"/>
 <path style="fill:#6f8bfb" d="m41 5.0002v18h18v-15.3c0-1.4956-1.204-2.6998-2.7-2.6998h-15.3z"/>
 <rect style="fill:#359b35" height="18" width="18" y="5" x="23"/>
 <path style="fill:#fd6e42" d="m7.6998 5.0002c-1.4956 0-2.6998 1.2042-2.6998 2.6998v15.3h18v-18h-15.3z"/>
 <path style="opacity:.2" d="m5 56.3v1.0002c0 1.497 1.2035 2.7 2.6993 2.7h48.602c1.496 0 2.699-1.203 2.699-2.7v-1c0 1.4963-1.2033 2.6998-2.6993 2.6998h-48.601c-1.4965 0-2.7-1.204-2.7-2.7z"/>
 <path style="opacity:.2;fill:#fff" d="m7.6992 5c-1.4958 0-2.6992 1.2032-2.6992 2.6992v1c0-1.496 1.2034-2.6992 2.6992-2.6992h48.602c1.496 0 2.699 1.2032 2.699 2.6992v-1c0-1.496-1.203-2.6992-2.699-2.6992h-48.602z"/>
</svg>
