<svg xmlns="http://www.w3.org/2000/svg" height="64" width="64" version="1">
 <path style="opacity:.2" d="m4.0508 32.001c-0.0118 0.33399-0.050799 0.66198-0.050799 0.99997 0 15.511 12.488 27.999 27.999 27.999 15.512 0 27.999-12.488 27.999-27.999 0-0.33767-0.03904-0.66526-0.05078-0.99997-0.52798 15.042-12.776 26.999-27.949 26.999-15.174 0-27.421-11.958-27.949-26.999z"/>
 <rect ry="27.999" style="fill:#515151" rx="27.999" transform="matrix(0,-1,-1,0,0,0)" height="55.998" width="55.998" y="-60" x="-60"/>
 <path style="opacity:.1;fill:#fff" d="m32 4.002c-15.512 0-28 12.486-28 27.998 0 0.114 0.0113 0.224 0.0176 0.336 0.3515-15.201 12.693-27.336 27.982-27.336s27.631 12.135 27.982 27.336c0.007-0.112 0.018-0.223 0.018-0.336 0-15.512-12.488-27.998-28-27.998z"/>
 <g style="opacity:.2" transform="matrix(3.7795 0 0 3.7795 18 -1075.5)">
  <path style="opacity:1;stroke-width:.22303" d="m1.0583 289.59a1.0583 1.0583 0 0 0 -1.0583 1.06 1.0583 1.0583 0 0 0 1.0583 1.0583h5.2917a1.0583 1.0583 0 0 0 1.0583 -1.0583 1.0583 1.0583 0 0 0 -1.0583 -1.0583z"/>
  <path style="opacity:1;stroke-width:.22303" d="m2.1167 290.65a1.0583 1.0583 0 0 0 -1.0584 -1.06 1.0583 1.0583 0 0 0 -1.0583 1.06v5.2917a1.0583 1.0583 0 0 0 1.0583 1.0583 1.0583 1.0583 0 0 0 1.0583 -1.0583z"/>
  <path style="opacity:1;stroke-width:.84294" transform="scale(.26458)" d="m4 1114.5a4 4 0 0 0 -4 4 4 4 0 0 0 4 4h20a4 4 0 0 0 4 -4 4 4 0 0 0 -4 -4z"/>
 </g>
 <path d="m22 18.005a3.9998 3.9998 0 0 0 -4 4.007 3.9998 3.9998 0 0 0 4 4h20a3.9998 3.9998 0 0 0 4 -4 3.9998 3.9998 0 0 0 -4 -4z" style="stroke-width:.84294;fill:#f25428"/>
 <path d="m26 22.012a3.9998 3.9998 0 0 0 -4 -4.007 3.9998 3.9998 0 0 0 -4 4.007v20a3.9998 3.9998 0 0 0 3.9998 3.9998 3.9998 3.9998 0 0 0 3.9998 -3.9998z" style="stroke-width:.84294;fill:#1891ca"/>
 <path d="m22 37.978a3.9999 3.9999 0 0 0 -4 4 3.9999 3.9999 0 0 0 3.9999 3.9999h20a3.9999 3.9999 0 0 0 3.9999 -3.9999 3.9999 3.9999 0 0 0 -3.9999 -3.9999z" style="stroke-width:.84292;fill:#cee640"/>
</svg>
