<svg xmlns="http://www.w3.org/2000/svg" height="64" width="64" version="1">
 <rect style="opacity:.2" transform="matrix(0,-1,-1,0,0,0)" rx="2.5" ry="2.5" height="52" width="52" y="-58" x="-59"/>
 <rect style="fill:#783d8b" transform="matrix(0,-1,-1,0,0,0)" rx="2.5" ry="2.5" height="52" width="52" y="-58" x="-58"/>
 <rect style="opacity:.2" rx="2.5" ry="2.5" height="24" width="40" y="31" x="12"/>
 <rect style="fill:#faf0f2" rx="2.5" ry="2.5" height="24" width="40" y="30" x="12"/>
 <path style="fill:#c5276c" d="m12 48v3.5c0 1.384 1.115 2.5 2.5 2.5h35c1.384 0 2.5-1.116 2.5-2.5v-3.5z"/>
 <path style="opacity:.2" d="m20 7v17.5c0 1.386 1.114 2.5 2.5 2.5h27c1.384 0 2.5-1.114 2.5-2.5v-17.5zm20 4h6c1.108 0 2 0.892 2 2v8c0 1.108-0.892 2-2 2h-6c-1.108 0-2-0.892-2-2v-8c0-1.108 0.892-2 2-2z"/>
 <path style="fill:#faf0f2" d="m20 6v17.5c0 1.386 1.114 2.5 2.5 2.5h27c1.384 0 2.5-1.114 2.5-2.5v-17.5zm20 4h6c1.108 0 2 0.892 2 2v8c0 1.108-0.892 2-2 2h-6c-1.108 0-2-0.892-2-2v-8c0-1.108 0.892-2 2-2z"/>
 <path style="opacity:.1;fill:#fff" d="m8.5 6c-1.385 0-2.5 1.115-2.5 2.5v1c0-1.385 1.115-2.5 2.5-2.5h47c1.385 0 2.5 1.115 2.5 2.5v-1c0-1.385-1.115-2.5-2.5-2.5z"/>
</svg>
