<svg xmlns="http://www.w3.org/2000/svg" height="64" width="64" version="1">
 <path style="opacity:.2" d="m58 7-4 4v2l6-6h-2zm-38 29v2c0 1.662 1.338 3 3 3h28c1.662 0 3-1.338 3-3v-2c0 1.662-1.338 3-3 3h-28c-1.662 0-3-1.338-3-3z"/>
 <path style="opacity:.2" d="m4 25 6 6v-2l-4-4h-2zm6 29v2c0 1.662 1.338 3 3 3h28c1.662 0 3-1.338 3-3v-2c0 1.662-1.338 3-3 3h-28c-1.662 0-3-1.338-3-3z"/>
 <path style="fill:#357ec7" d="m23 6c-1.662 0-3 1.338-3 3v28c0 1.662 1.338 3 3 3h28c1.662 0 3-1.338 3-3v-25l6-6h-37z"/>
 <path style="opacity:.1;fill:#fff" d="m23 6c-1.662 0-3 1.338-3 3v1c0-1.662 1.338-3 3-3h36l1-1h-37z"/>
 <path style="fill:#6ea6de" d="m4 24 6 6v25c0 1.662 1.338 3 3 3h28c1.662 0 3-1.338 3-3v-28c0-1.662-1.338-3-3-3h-37z"/>
 <path style="opacity:.1;fill:#fff" d="m4 24l1 1h36c1.662 0 3 1.338 3 3v-1c0-1.662-1.338-3-3-3h-37z"/>
 <path d="m27 32c-5.5228 0-10 4.4772-10 10s4.4772 10 10 10 10-4.4772 10-10-4.4772-10-10-10zm0 2c4.4183 0 8 3.5817 8 8s-3.5817 8-8 8-8-3.5817-8-8 3.5817-8 8-8zm-1 2v7h7v-2h-5v-5z" style="opacity:.2"/>
 <path style="fill:#fff" d="m27 31c-5.5228 0-10 4.4772-10 10s4.4772 10 10 10 10-4.4772 10-10-4.4772-10-10-10zm0 2c4.4183 0 8 3.5817 8 8s-3.5817 8-8 8-8-3.5817-8-8 3.5817-8 8-8zm-1 2v7h7v-2h-5v-5z"/>
</svg>
