<svg xmlns="http://www.w3.org/2000/svg" height="64" width="64" version="1">
 <path style="opacity:.2" d="m4 53v1c0 1.662 1.338 3 3 3h50c1.662 0 3-1.338 3-3v-1c0 1.662-1.338 3-3 3h-50c-1.662 0-3-1.338-3-3z"/>
 <rect style="fill:#080808" rx="3" ry="3" height="48" width="56" y="8" x="4"/>
 <path style="opacity:.1;fill:#fff" d="m7 8c-1.662 0-3 1.338-3 3v1c0-1.662 1.338-3 3-3h50c1.662 0 3 1.338 3 3v-1c0-1.662-1.338-3-3-3h-50z"/>
 <path d="m20.793 21c-0.80234 0-1.4483 0.64593-1.4483 1.4483v1.4483h-3.379c-0.535 0.001-0.966 0.431-0.966 0.966v2.8966h1.4483c0.80234 0 1.4483 0.64593 1.4483 1.4483 0 0.80234-0.64593 1.4483-1.4483 1.4483h-1.448v3.3793c0 0.534 0.431 0.965 0.966 0.965h3.3793v-0.96552c0-0.80234 0.64593-1.4483 1.4483-1.4483 0.80234 0 1.4483 0.64593 1.4483 1.4483v0.966h2.8966c0.5349 0 0.96552-0.43062 0.96552-0.96552v-3.3793h1.4483c0.801 0 1.447-0.646 1.447-1.448s-0.646-1.448-1.448-1.448h-1.4483v-2.8966c0-0.5349-0.43062-0.96552-0.96552-0.96552h-2.897v-1.448c0-0.802-0.646-1.448-1.448-1.448z" style="opacity:.2;stroke-width:.24138"/>
 <path style="stroke-width:.24138;fill:#f8f8f8" d="m20.793 20c-0.80234 0-1.4483 0.64593-1.4483 1.4483v1.4483h-3.379c-0.535 0.001-0.966 0.431-0.966 0.966v2.8966h1.4483c0.80234 0 1.4483 0.64593 1.4483 1.4483 0 0.80234-0.64593 1.4483-1.4483 1.4483h-1.448v3.3793c0 0.534 0.431 0.965 0.966 0.965h3.3793v-0.96552c0-0.80234 0.64593-1.4483 1.4483-1.4483 0.80234 0 1.4483 0.64593 1.4483 1.4483v0.966h2.8966c0.5349 0 0.96552-0.43062 0.96552-0.96552v-3.3793h1.4483c0.801 0 1.447-0.646 1.447-1.448s-0.646-1.448-1.448-1.448h-1.4483v-2.8966c0-0.5349-0.43062-0.96552-0.96552-0.96552h-2.897v-1.448c0-0.802-0.646-1.448-1.448-1.448z"/>
</svg>
