<svg xmlns="http://www.w3.org/2000/svg" height="64" width="64" version="1">
 <path style="opacity:.2" d="m4.0508 32.001c-0.0118 0.33399-0.050799 0.66198-0.050799 0.99997 0 15.511 12.488 27.999 27.999 27.999 15.512 0 27.999-12.488 27.999-27.999 0-0.33767-0.03904-0.66526-0.05078-0.99997-0.52798 15.042-12.776 26.999-27.949 26.999-15.174 0-27.421-11.958-27.949-26.999z"/>
 <rect style="fill:#3a72ad" transform="matrix(0,-1,-1,0,0,0)" rx="27.999" ry="27.999" height="55.998" width="55.998" y="-60" x="-60"/>
 <path style="opacity:.1;fill:#fff" d="m32 4.002c-15.512 0-28 12.486-28 27.998 0 0.114 0.0113 0.224 0.0176 0.336 0.3515-15.201 12.693-27.336 27.982-27.336s27.631 12.135 27.982 27.336c0.007-0.112 0.018-0.223 0.018-0.336 0-15.512-12.488-27.998-28-27.998z"/>
 <g transform="matrix(1.8898 0 0 1.8898 12.5 -516.14)">
  <g style="opacity:.2" transform="translate(0 .52916)">
   <path d="m14.817 286.62v1.5875h-7.1441c-0.38111 0-0.79375 0.381-0.79375 0.59532v5.9531c0 0.21437 0.41264 0.59531 0.79375 0.59531h7.1438v1.5875l5.8208-5.1594z" style="stroke-width:.22914"/>
   <path style="stroke-width:.22914" d="m5.8208 283.18v1.5875h7.1438c0.38111 0 0.79375 0.381 0.79375 0.59532v5.9531c0 0.21437-0.41264 0.59531-0.79375 0.59531h-7.1438v1.5875l-5.8212-5.17z"/>
  </g>
  <path style="stroke-width:.22914;fill:#ccc" d="m14.817 286.62v1.5875h-7.1441c-0.38111 0-0.79375 0.381-0.79375 0.59532v5.9531c0 0.21437 0.41264 0.59531 0.79375 0.59531h7.1438v1.5875l5.8208-5.1594z"/>
  <path d="m5.8208 283.18v1.5875h7.1438c0.38111 0 0.79375 0.381 0.79375 0.59532v5.9531c0 0.21437-0.41264 0.59531-0.79375 0.59531h-7.1438v1.5875l-5.8212-5.17z" style="stroke-width:.22914;fill:#f2f2f2"/>
 </g>
</svg>
