<?xml version="1.0" encoding="UTF-8" standalone="no"?>
<svg
   xmlns:dc="http://purl.org/dc/elements/1.1/"
   xmlns:cc="http://creativecommons.org/ns#"
   xmlns:rdf="http://www.w3.org/1999/02/22-rdf-syntax-ns#"
   xmlns:svg="http://www.w3.org/2000/svg"
   xmlns="http://www.w3.org/2000/svg"
   xmlns:sodipodi="http://sodipodi.sourceforge.net/DTD/sodipodi-0.dtd"
   xmlns:inkscape="http://www.inkscape.org/namespaces/inkscape"
   height="64"
   width="64"
   version="1"
   id="svg20"
   sodipodi:docname="vanilla.svg"
   inkscape:version="0.92.1 r15371">
  <metadata
     id="metadata26">
    <rdf:RDF>
      <cc:Work
         rdf:about="">
        <dc:format>image/svg+xml</dc:format>
        <dc:type
           rdf:resource="http://purl.org/dc/dcmitype/StillImage" />
      </cc:Work>
    </rdf:RDF>
  </metadata>
  <defs
     id="defs24" />
  <sodipodi:namedview
     pagecolor="#ffffff"
     bordercolor="#666666"
     borderopacity="1"
     objecttolerance="10"
     gridtolerance="10"
     guidetolerance="10"
     inkscape:pageopacity="0"
     inkscape:pageshadow="2"
     inkscape:window-width="768"
     inkscape:window-height="480"
     id="namedview22"
     showgrid="false"
     inkscape:zoom="3.6875"
     inkscape:cx="32"
     inkscape:cy="32"
     inkscape:window-x="65"
     inkscape:window-y="27"
     inkscape:window-maximized="0"
     inkscape:current-layer="svg20" />
  <rect
     ry="2.8"
     style="opacity:.2;fill:#070000"
     rx="2.75"
     transform="scale(-1,1)"
     height="56"
     width="44"
     y="5"
     x="-54"
     id="rect2" />
  <rect
     style="fill:#efefef"
     transform="scale(-1,1)"
     rx="2.75"
     ry="2.8"
     height="56"
     width="44"
     y="4"
     x="-54"
     id="rect4" />
  <circle
     style="fill:#ec611f;fill-opacity:1"
     transform="rotate(-90)"
     cy="32"
     cx="-38"
     r="18"
     id="circle6" />
  <circle
     style="opacity:.2"
     transform="matrix(0,-1,-1,0,0,0)"
     cy="-32"
     cx="-39"
     r="14"
     id="circle8" />
  <circle
     style="fill:#383838"
     transform="matrix(0,-1,-1,0,0,0)"
     cy="-32"
     cx="-38"
     r="14"
     id="circle10" />
  <circle
     style="fill:#2c2c2c"
     transform="matrix(0,-1,-1,0,0,0)"
     cy="-32"
     cx="-38"
     r="6"
     id="circle12" />
  <circle
     style="fill:#383838"
     transform="rotate(90)"
     cy="-18"
     cx="13"
     r="3"
     id="circle14" />
  <circle
     style="fill:#383838"
     transform="rotate(90)"
     cy="-46"
     cx="13"
     r="3"
     id="circle16" />
  <path
     style="opacity:.1;fill:#fff"
     d="m12.75 4c-1.524 0-2.75 1.2496-2.75 2.8008v1c0-1.5512 1.226-2.8008 2.75-2.8008h38.5c1.524 0 2.75 1.2496 2.75 2.8008v-1c0-1.5512-1.226-2.8008-2.75-2.8008h-38.5z"
     id="path18" />
</svg>
